<?xml version="1.0" standalone="no"?>
<!DOCTYPE svg PUBLIC "-//W3C//DTD SVG 1.1//EN" "http://www.w3.org/Graphics/SVG/1.1/DTD/svg11.dtd" >
<!--
2013-9-30: Created.
-->
<svg>
<metadata>
Created by iconfont
</metadata>
<defs>

<font id="iconfont" horiz-adv-x="1024" >
  <font-face
    font-family="iconfont"
    font-weight="500"
    font-stretch="normal"
    units-per-em="1024"
    ascent="896"
    descent="-128"
  />
    <missing-glyph />
    
    <glyph glyph-name="caozuo-yincangmima" unicode="&#58956;" d="M802.22 674.387c-10.022 10.022-26.279 10.022-36.275 0l-544.114-544.113c-10.022-10.022-10.022-26.253 0-36.275s26.253-10.022 36.275 0l544.113 544.113c9.999 10.021 9.999 26.277 0.001 36.275zM802.363 674.003c-10.022 10.022-26.279 10.022-36.275 0l-544.114-544.114c-10.022-10.022-10.022-26.253 0-36.275s26.253-10.022 36.275 0l544.113 544.113c10.024 9.999 10.024 26.254 0.001 36.276zM551.909 525.255c-12.66 3.549-25.943 5.611-39.751 5.611-80.991 0-146.661-65.671-146.661-146.661 0-13.787 2.037-27.093 5.61-39.751l180.803 180.802zM473.077 242.985c12.468-3.453 25.535-5.443 39.106-5.443 80.991 0 146.661 65.671 146.661 146.661 0 13.571-1.99 26.638-5.443 39.106l-180.324-180.324zM233.914 207.285l34.501 34.501c-54.498 36.085-101.371 84.253-136.256 142.035 80.513 133.427 224.825 215.785 379.853 215.785 34.742 0 68.883-4.34 101.969-12.276l39.033 39.033c-45.194 13.691-92.595 21.171-141.003 21.171-176.824 0-341.012-96.552-428.501-251.966l-6.617-11.772 6.617-11.773c37.644-66.82 89.505-122.684 150.405-164.738zM940.49 395.57c-37.572 66.773-89.385 122.589-150.187 164.643l-34.477-34.477c54.402-36.059 101.203-84.18 136.040-141.915-80.488-133.451-224.8-215.785-379.852-215.785-34.646 0-68.691 4.34-101.683 12.203l-39.057-39.057c45.123-13.642 92.428-21.099 140.739-21.099 176.848 0 341.036 96.552 428.477 251.989l6.616 11.748-6.617 11.75z"  horiz-adv-x="1024" />

    
    <glyph glyph-name="xianshimima1" unicode="&#58958;" d="M512 42.666667C277.333333 42.666667 78.933333 347.733333 70.4 360.533333L55.466667 384l14.933333 23.466667C78.933333 420.266667 277.333333 725.333333 512 725.333333s433.066667-305.066667 441.6-317.866666l14.933333-23.466667-14.933333-23.466667C945.066667 347.733333 746.666667 42.666667 512 42.666667zM157.866667 384c49.066667-66.133333 198.4-256 354.133333-256s305.066667 189.866667 354.133333 256c-49.066667 66.133333-198.4 256-354.133333 256S206.933333 450.133333 157.866667 384zM512 384m-85.333333 0a85.333333 85.333333 0 1 1 170.666666 0 85.333333 85.333333 0 1 1-170.666666 0Z"  horiz-adv-x="1024" />

    
    <glyph glyph-name="yincangmima" unicode="&#58960;" d="M456.533333 8.533333c-234.666667 0-433.066667 305.066667-441.6 317.866667L0 349.866667l14.933333 23.466666c8.533333 12.8 206.933333 317.866667 441.6 317.866667s433.066667-305.066667 441.6-317.866667l14.933334-23.466666-14.933334-23.466667c-8.533333-12.8-206.933333-317.866667-441.6-317.866667z m-354.133333 341.333334c49.066667-66.133333 198.4-256 354.133333-256 155.733333 0 305.066667 189.866667 354.133334 256-49.066667 66.133333-198.4 256-354.133334 256-142.933333 0-290.133333-166.4-354.133333-256zM66.325333 793.237333l72.405334 72.426667L1004.586667-0.213333l-72.405334-72.405334zM14.378667 750.869333l60.352 60.352 853.802666-853.802666-60.352-60.352z"  horiz-adv-x="1024" />

    
    <glyph glyph-name="xianshimima2" unicode="&#58961;" d="M512 682.67c198.54 0 374.46-116.53 446.38-290.52a21.33 21.33 0 0 0 0-16.3C886.46 201.86 710.54 85.33 512 85.33S137.54 201.86 65.62 375.85a21.33 21.33 0 0 0 0 16.3C137.54 566.14 313.46 682.67 512 682.67z m0-42.67c-178.21 0-336.1-102.55-403.48-256C175.9 230.55 333.79 128 512 128s336.1 102.55 403.48 256C848.1 537.45 690.21 640 512 640zM512 234.67A149.33 149.33 0 1 0 661.33 384 149.33 149.33 0 0 0 512 234.67z m0 42.67A106.67 106.67 0 1 1 405.33 384 106.67 106.67 0 0 1 512 277.33z"  horiz-adv-x="1024" />

    
    <glyph glyph-name="yincangmima1" unicode="&#58967;" d="M228.41 697.73a21.33 21.33 0 0 1-30.17-30.17l56.46-56.46c-83.6-50.76-150.66-126-189.08-219a21.33 21.33 0 0 1 0-16.33C138.56 199.36 313.78 85.32 512 85.32a496.64 496.64 0 0 1 217.89 50.61l65.69-65.69a21.33 21.33 0 1 1 30.17 30.17z m194.68-255l147.63-147.64a106.5 106.5 0 0 0-147.63 147.63zM512 128c-177.8 0-335.17 100.15-403.49 256 36.81 84 100.12 150.76 178 195.34L392.81 473c-18.68-24.93-30.15-55.54-30.15-89 0-82.33 67-149.33 149.33-149.33 33.47 0 64.08 11.47 89 30.15l96.21-96.21C640.44 143.1 578 128 512 128zM958.37 392.15C885.43 568.61 710.2 682.65 512 682.65a502.15 502.15 0 0 1-157.66-25.45l34.22-34.2A461 461 0 0 0 512 640c177.79 0 335.17-100.17 403.48-256-28.33-64.63-72.59-118.93-126.66-161.23l30.88-30.88C879.76 240 928 302.38 958.37 375.82a21.33 21.33 0 0 1 0 16.33zM617.66 393.89l40.47-40.47a149.27 149.27 0 0 1 3.2 30.56c0 82.33-67 149.33-149.33 149.33a149.19 149.19 0 0 1-30.57-3.2l40.47-40.47a106.11 106.11 0 0 0 95.76-95.75z"  horiz-adv-x="1024" />

    
    <glyph glyph-name="xianshimima3" unicode="&#58986;" d="M90.624 349.184a51.2 51.2 0 0 0 4.096 75.264L353.28 657.92a236.544 236.544 0 0 0 317.44 0l258.56-233.472 4.608-4.608a51.2 51.2 0 0 0-5.632-75.264L665.6 118.784a236.544 236.544 0 0 0-307.2 0l-262.656 225.28z m307.2-181.76a172.544 172.544 0 0 1 225.792 0L877.568 384l-249.856 225.28a172.544 172.544 0 0 1-231.424 0L146.432 384zM512 249.344A134.656 134.656 0 1 0 646.656 384 134.656 134.656 0 0 0 512 249.344z m0 64A70.656 70.656 0 1 1 441.856 384 70.144 70.144 0 0 1 512 313.344z"  horiz-adv-x="1024" />

    
    <glyph glyph-name="xianshimima4" unicode="&#58969;" d="M90.624 349.184a51.2 51.2 0 0 0 4.096 75.264L353.28 657.92a236.544 236.544 0 0 0 317.44 0l258.56-233.472 4.608-4.608a51.2 51.2 0 0 0-5.632-75.264L665.6 118.784a236.544 236.544 0 0 0-307.2 0l-262.656 225.28z m307.2-181.76a172.544 172.544 0 0 1 225.792 0L877.568 384l-249.856 225.28a172.544 172.544 0 0 1-231.424 0L146.432 384zM512 249.344A134.656 134.656 0 1 0 646.656 384 134.656 134.656 0 0 0 512 249.344z m0 64A70.656 70.656 0 1 1 441.856 384 70.144 70.144 0 0 1 512 313.344z"  horiz-adv-x="1024" />

    
    <glyph glyph-name="xianshimima5" unicode="&#58970;" d="M512 94.97c-104.03 0-214.16 48.72-318.47 140.91-78.12 69.04-125.05 137.1-127 139.96a14.42 14.42 0 0 0 0 16.31c1.95 2.86 48.88 70.92 127 139.96 104.3 92.2 214.44 140.92 318.47 140.92s214.16-48.72 318.47-140.91c78.13-69.04 125.04-137.1 127-139.96a14.42 14.42 0 0 0 0-16.31c-1.96-2.86-48.87-70.92-127-139.96C726.16 143.69 616.02 94.97 512 94.97zM96.28 384C129.65 339.02 300.43 123.87 512 123.87S894.34 339.02 927.72 384C894.34 428.98 723.56 644.13 512 644.13S129.65 428.98 96.28 384zM512 239.48c-79.68 0-144.52 64.83-144.52 144.52S432.32 528.52 512 528.52 656.51 463.69 656.51 384 591.68 239.48 512 239.48z m0 260.13c-63.75 0-115.61-51.86-115.61-115.61S448.25 268.39 512 268.39 627.61 320.25 627.61 384 575.75 499.61 512 499.61z"  horiz-adv-x="1024" />

    
    <glyph glyph-name="yincangmima2" unicode="&#58971;" d="M511.02 295.49c-183.28 0-345.85 106.55-414.16 271.45-3.64 8.79 0.53 18.87 9.32 22.51 8.77 3.66 18.87-0.53 22.51-9.32 62.96-151.97 213.02-250.18 382.32-250.18s319.36 98.2 382.33 250.18c3.63 8.79 13.76 12.96 22.51 9.32 8.78-3.64 12.96-13.72 9.32-22.51-68.3-164.9-230.87-271.45-414.15-271.45zM511.02 177.22c-9.52 0-17.23 7.72-17.23 17.23V312.72c0 9.52 7.71 17.23 17.23 17.23s17.23-7.72 17.23-17.23v-118.27c0-9.51-7.71-17.23-17.23-17.23zM244.11 245.29c-2.99 0-6.02 0.77-8.78 2.41-8.19 4.85-10.88 15.43-6.02 23.61l60.11 101.31c4.88 8.19 15.43 10.89 23.63 6.02 8.18-4.85 10.87-15.43 6.02-23.61l-60.13-101.31c-3.22-5.42-8.95-8.43-14.83-8.43zM81.23 387.63c-4.43 0-8.85 1.69-12.22 5.08-6.71 6.75-6.68 17.66 0.07 24.37l81.6 81.16c6.73 6.71 17.65 6.7 24.37-0.07 6.71-6.75 6.68-17.66-0.07-24.37l-81.6-81.16a17.19 17.19 0 0 0-12.15-5.01zM942.77 387.63c-4.39 0-8.78 1.67-12.15 5.01l-81.58 81.16c-6.75 6.71-6.78 17.63-0.07 24.37 6.71 6.75 17.62 6.76 24.37 0.07l81.58-81.16c6.75-6.71 6.78-17.63 0.07-24.37a17.18 17.18 0 0 0-12.22-5.08zM780.83 245.29c-5.89 0-11.61 3.01-14.84 8.44l-60.11 101.31c-4.85 8.19-2.15 18.75 6.02 23.61 8.18 4.87 18.75 2.17 23.63-6.02l60.11-101.31c4.85-8.19 2.15-18.75-6.02-23.61-2.77-1.65-5.8-2.42-8.79-2.42z"  horiz-adv-x="1024" />

    
    <glyph glyph-name="mima_xianshimima" unicode="&#58972;" d="M329.956 378.311a199.111 176.356 90 1 1 352.71 0 199.111 176.356 90 1 1-352.71 0zM512 116.622c-216.178 0-392.533 176.356-438.044 227.556-17.067 22.755-17.067 51.2 0 73.955 51.2 51.2 221.866 227.556 438.044 227.556 216.178 0 392.533-176.356 438.044-227.556 17.067-22.755 17.067-51.2 0-73.955-45.51-51.2-221.866-227.556-438.044-227.556zM147.911 384c51.2-51.2 199.111-182.044 364.089-182.044S824.889 332.8 876.089 384C819.2 435.2 676.978 566.044 512 566.044S199.111 435.2 147.911 384z m739.556-17.067z"  horiz-adv-x="1024" />

    
    <glyph glyph-name="xianshimima6" unicode="&#58973;" d="M512 497.664c-75.776 0-137.216-61.44-137.216-137.216s61.44-137.216 137.216-137.216 137.216 61.44 137.216 137.216-61.44 137.216-137.216 137.216z m0-205.824c-37.888 0-68.608 30.72-68.608 68.608s30.72 68.608 68.608 68.608 68.608-30.72 68.608-68.608c0.512-37.376-30.72-68.608-68.608-68.608z m0 369.664c-278.016 0-479.744-179.712-479.744-300.544 0-118.784 215.04-300.544 479.744-300.544 262.144 0 474.624 181.76 474.624 300.544S774.144 661.504 512 661.504z m0-532.992c-237.568 0-411.136 162.816-411.136 232.448 0 79.36 173.568 232.448 411.136 232.448 235.008 0 406.528-162.816 406.528-232.448s-171.52-232.448-406.528-232.448z"  horiz-adv-x="1024" />

    
    <glyph glyph-name="yincangmima3" unicode="&#58975;" d="M950.784 292.864c12.8-13.824 11.264-35.84-2.56-48.128-6.656-5.632-14.848-8.704-22.528-8.704-9.216 0-18.432 3.584-25.6 11.264l-84.48 94.208c-0.512 0.512-0.512 1.024-1.024 1.536-44.032-24.576-94.208-43.008-152.064-53.248l35.328-107.52c6.144-17.92-3.584-37.376-21.504-43.008-3.584-1.024-7.168-1.536-10.752-1.536-14.336 0-27.648 9.216-32.256 23.552l-39.424 119.808c-25.088-2.048-51.2-3.072-78.848-3.072-31.232 0-59.904 1.536-86.528 4.096l-37.888-114.688c-4.608-14.336-17.92-23.552-32.256-23.552-3.584 0-7.168 0.512-10.752 1.536-17.92 6.144-27.648 25.088-21.504 43.008l34.304 103.936c-61.952 12.8-111.616 32.768-152.064 57.856l-90.112-100.352c-6.656-7.68-15.872-11.264-25.6-11.264-8.192 0-16.384 3.072-22.528 8.704-13.824 12.8-15.36 34.304-2.56 48.128l85.504 95.744c-31.232 25.6-56.832 54.272-80.384 82.944-11.776 14.848-9.728 36.352 5.12 48.128 14.848 11.776 36.352 9.728 48.128-5.12 58.88-72.192 139.776-171.52 388.608-171.52 252.416 0 338.944 95.744 381.952 167.424 9.728 16.384 30.72 21.504 46.592 11.776 16.384-9.728 21.504-30.72 11.776-46.592-22.528-37.888-51.2-69.632-83.968-96.768l79.872-88.576z"  horiz-adv-x="1024" />

    
    <glyph glyph-name="yincangmima4" unicode="&#58978;" d="M989.184 362.496c0-52.736-42.496-118.272-114.176-175.104-6.144-5.12-13.824-7.68-21.504-7.68-10.24 0-19.968 4.608-26.624 12.8-11.776 14.848-9.216 36.352 5.12 48.128 60.928 48.64 88.576 97.28 88.576 121.856 0 69.12-171.52 232.448-406.528 232.448-26.624 0-53.248-2.048-79.872-5.632-18.432-3.072-35.84 10.24-38.912 28.672-2.56 18.432 10.24 35.84 28.672 38.912 29.696 4.608 59.904 6.656 89.6 6.656 263.168 0 475.648-182.272 475.648-301.056z m-136.192-272.896c13.312-13.312 13.312-34.816 0-48.128-6.656-6.656-15.36-10.24-24.064-10.24-8.704 0-17.408 3.584-24.064 10.24l-66.56 66.56c-71.168-29.696-147.968-45.568-223.744-45.568-264.704 0-479.744 181.76-479.744 300.544 0 82.432 86.016 178.176 209.92 238.592L175.616 670.72a33.9968 33.9968 0 0 0 0 48.128c13.312 13.312 34.816 13.312 48.128 0l104.96-104.96 524.288-524.288zM445.44 362.496c0-37.888 30.72-68.608 68.608-68.608 10.752 0 20.992 2.56 30.72 7.168l-92.16 92.16c-4.608-9.216-7.168-19.456-7.168-30.72z m240.64-202.24l-91.136 91.136c-23.04-16.896-50.688-26.112-80.384-26.112-75.776 0-137.216 61.44-137.216 137.216 0 29.184 9.728 56.832 26.112 79.872L296.96 549.376c-119.808-52.224-193.536-135.168-193.536-186.88 0-69.12 173.568-232.448 411.136-232.448 57.856 0.512 116.224 10.752 171.52 30.208z"  horiz-adv-x="1024" />

    
    <glyph glyph-name="yincangmima5" unicode="&#58979;" d="M512 366.811429a665.234286 665.234286 0 0 0-427.885714 143.36 36.571429 36.571429 0 0 0-10.971429 22.308571 32.914286 32.914286 0 0 0 8.045714 23.405714 32.548571 32.548571 0 0 0 45.714286 2.925715c197.851429-170.057143 572.342857-170.057143 768 0a32.182857 32.182857 0 1 0 42.422857-48.64A663.771429 663.771429 0 0 0 512 366.811429z m-117.028571-140.8h-5.851429A32.182857 32.182857 0 0 0 365.714286 237.714286a30.354286 30.354286 0 0 0-4.754286 24.868571l21.211429 125.805714a32.914286 32.914286 0 0 0 36.571428 26.331429 33.645714 33.645714 0 0 0 21.211429-13.165714 34.011429 34.011429 0 0 0 5.485714-24.502857l-21.577143-125.44a31.817143 31.817143 0 0 0-29.257143-25.6z m480.182857 64a31.085714 31.085714 0 0 0-22.674286 9.508571l-105.691429 106.422857a31.817143 31.817143 0 0 0 13.897143 55.222857 32.914286 32.914286 0 0 0 31.817143-10.605714l105.325714-106.422857a31.817143 31.817143 0 0 0 0-44.982857 34.011429 34.011429 0 0 0-23.04-9.142857z m-726.674286 0a33.645714 33.645714 0 0 0-21.211429 9.142857 31.817143 31.817143 0 0 0-9.508571 22.308571 32.914286 32.914286 0 0 0 9.508571 22.674286l105.325715 106.422857a31.451429 31.451429 0 0 0 32.914285 12.8 32.182857 32.182857 0 0 0 24.868572-24.868571 31.451429 31.451429 0 0 0-13.531429-32.548572l-105.691428-106.422857a29.988571 29.988571 0 0 0-23.04-9.508571z m482.011429-64a32.182857 32.182857 0 0 0-31.451429 26.331428l-21.211429 125.44a31.451429 31.451429 0 0 0 8.411429 33.28 30.72 30.72 0 0 0 33.645714 6.582857 31.451429 31.451429 0 0 0 20.114286-27.428571l21.577143-125.805714a32.548571 32.548571 0 0 0-5.12-23.771429 32.914286 32.914286 0 0 0-20.845714-13.165714h-5.12z"  horiz-adv-x="1024" />

    
    <glyph glyph-name="xianshimima7" unicode="&#58980;" d="M500.662857 676.571429a407.405714 407.405714 0 0 0 164.937143-36.571429 595.748571 595.748571 0 0 0 159.451429-103.862857 964.022857 964.022857 0 0 0 109.714285-117.394286 29.257143 29.257143 0 0 0 0-39.862857 758.125714 758.125714 0 0 0-84.114285-102.765714 611.474286 611.474286 0 0 0-141.531429-109.714286 416.914286 416.914286 0 0 0-144.091429-49.737143 379.611429 379.611429 0 0 0-185.051428 20.48 565.028571 565.028571 0 0 0-167.131429 104.228572 957.074286 957.074286 0 0 0-131.657143 140.434285 25.234286 25.234286 0 0 0 0 36.571429A721.188571 721.188571 0 0 0 245.028571 585.874286a491.154286 491.154286 0 0 0 138.24 71.314285A381.074286 381.074286 0 0 0 500.662857 676.571429zM694.857143 566.857143a216.137143 216.137143 0 0 0-47.542857-268.068572 212.845714 212.845714 0 0 0-256-16.091428 208.091429 208.091429 0 0 0-90.697143 131.657143 214.674286 214.674286 0 0 0 25.234286 157.622857 632.685714 632.685714 0 0 1-190.537143-170.057143 1080.32 1080.32 0 0 1 76.8-85.942857A651.337143 651.337143 0 0 1 292.571429 248.32a402.285714 402.285714 0 0 1 167.131428-73.142857 320.731429 320.731429 0 0 1 118.125714 0 409.234286 409.234286 0 0 1 157.988572 73.142857 670.354286 670.354286 0 0 1 146.285714 146.285714 4.754286 4.754286 0 0 1 0 6.948572c-15.36 17.188571-30.72 36.571429-46.445714 51.931428a640.365714 640.365714 0 0 1-117.76 99.84L694.857143 566.857143z m-334.262857-115.2a73.142857 73.142857 0 0 1 4.022857-12.8 22.674286 22.674286 0 0 1 41.325714 11.337143 238.445714 238.445714 0 0 0 6.948572 36.571428 101.668571 101.668571 0 0 0 90.697142 73.142857 24.137143 24.137143 0 0 1 22.308572 25.234286 18.651429 18.651429 0 0 1-20.48 18.285714h-14.262857a157.622857 157.622857 0 0 1-73.142857-32.548571 168.96 168.96 0 0 1-55.954286-119.222857z"  horiz-adv-x="1024" />

    
    <glyph glyph-name="xianshimima8" unicode="&#58981;" d="M513.92 449.493333a64 64 0 1 0-64-64 64 64 0 0 0 64 64m0 64a128 128 0 1 1 128-128 128 128 0 0 1-128 128zM512 606.293333c128 0 257.706667-67.84 397.226667-207.146666a21.333333 21.333333 0 0 0 0-30.08C770.133333 229.546667 640 161.706667 512 161.706667s-257.28 67.84-396.8 207.146666a21.333333 21.333333 0 0 0 0 30.08c139.52 139.52 268.8 207.36 396.8 207.36m0 64c-145.92 0-291.84-75.306667-442.453333-225.92a85.333333 85.333333 0 0 1 0-120.746666C220.586667 173.013333 366.506667 97.706667 512 97.706667s292.266667 75.306667 442.666667 225.92a85.333333 85.333333 0 0 1 0 120.746666C804.266667 594.986667 658.346667 670.293333 512 670.293333z"  horiz-adv-x="1024" />

    
    <glyph glyph-name="yincangmima6" unicode="&#58984;" d="M386.346667 391.466667l121.813333 121.813333a128 128 0 0 1-121.813333-121.813333z m238.72 57.6L576 400.213333a64 64 0 0 0-76.8-76.8l-48.853333-48.853333a128 128 0 0 1 174.506666 174.506667zM109.013333 384a21.333333 21.333333 0 0 0 6.186667 15.146667c139.52 139.306667 268.8 207.146667 396.8 207.146666a372.266667 372.266667 0 0 0 79.786667-8.96l52.266666 52.266667a443.52 443.52 0 0 1-132.053333 21.333333c-145.92 0-291.84-75.306667-442.453333-225.92a85.333333 85.333333 0 0 1 0-120.746666 1063.04 1063.04 0 0 1 134.186666-115.2l45.866667 45.866666a985.813333 985.813333 0 0 0-134.4 114.133334 21.333333 21.333333 0 0 0-6.186667 14.933333z m845.653334 60.373333a966.613333 966.613333 0 0 1-185.813334 149.333334l-46.72-46.72a877.653333 877.653333 0 0 0 187.306667-147.2 21.333333 21.333333 0 0 0 0-30.08C770.133333 229.546667 640 161.706667 512 161.706667a393.386667 393.386667 0 0 0-145.706667 29.013333l-48.64-48.64A466.133333 466.133333 0 0 1 512 97.706667c145.92 0 291.84 75.306667 442.453333 225.92a85.333333 85.333333 0 0 1 0.213334 120.746666zM777.267604 692.049287m22.627417-22.627417l0 0q22.627417-22.627417 0-45.254834l-527.973064-527.973063q-22.627417-22.627417-45.254834 0l0 0q-22.627417 22.627417 0 45.254834l527.973064 527.973063q22.627417 22.627417 45.254834 0Z"  horiz-adv-x="1024" />

    
    <glyph glyph-name="faxianxianshimima" unicode="&#58952;" d="M515.708973-2.747321c-156.913772 0-446.716134 118.238938-446.716134 286.696628 0 168.46383 289.802362 286.689465 446.716134 286.689465 156.900469 0 446.702831-118.225635 446.702831-286.689465C962.411805 115.491617 672.609443-2.747321 515.708973-2.747321zM515.708973 517.302005c-148.202367 0-393.378345-109.057835-393.378345-233.351676 0-124.287701 245.175979-233.359862 393.378345-233.359862 148.188041 0 393.365043 109.072161 393.365043 233.359862C909.074016 408.243147 663.897014 517.302005 515.708973 517.302005zM515.708973 141.717931c-77.206406 0-140.024104 62.797231-140.024104 140.004661 0 77.206406 62.817698 140.010801 140.024104 140.010801s140.011824-62.804395 140.011824-140.010801C655.720797 204.515163 592.915379 141.717931 515.708973 141.717931zM515.708973 395.06501c-62.505589 0-113.355721-50.850132-113.355721-113.342418 0-62.492286 50.850132-113.337301 113.355721-113.337301 62.492286 0 113.342418 50.845015 113.342418 113.337301C629.051391 344.214878 578.20126 395.06501 515.708973 395.06501zM463.335139 316.503746c-3.229554 0-6.459109 1.159406-9.023514 3.517103-5.417383 4.987594-5.7694 13.425777-0.781806 18.842137 2.668783 2.904143 5.53404 5.626137 8.581446 8.138354 5.703909 4.674463 14.103206 3.867074 18.777669-1.822508 4.687766-5.690606 3.867074-14.089903-1.810229-18.777669-2.110057-1.731434-4.089132-3.593851-5.925966-5.586229C470.522842 317.949678 466.92899 316.503746 463.335139 316.503746zM515.708973 197.276295c-46.579875 0-84.472903 37.880749-84.472903 84.446297 0 7.369851 5.977132 13.33368 13.334703 13.33368 7.369851 0 13.33368-5.963829 13.33368-13.33368 0-31.864732 25.939789-57.778938 57.804521-57.778938 7.369851 0 13.33368-5.963829 13.33368-13.334703C529.042653 203.240123 523.078825 197.276295 515.708973 197.276295zM514.042008 603.975017c-14.727423 0-26.669406 11.94096-26.669406 26.669406l0 80.007195c0 14.727423 11.941983 26.668383 26.669406 26.668383 14.728446 0 26.669406-11.94096 26.669406-26.668383l0-80.007195C540.71039 615.917 528.770454 603.975017 514.042008 603.975017zM360.396675 594.912617c-9.766434 0-19.155269 5.365194-23.843034 14.675234l-24.689309 49.066509c-6.627954 13.164834-1.328251 29.194926 11.836583 35.8106 13.139252 6.641257 29.182646 1.341554 35.8106-11.82328l24.689309-49.066509c6.614651-13.164834 1.314948-29.194926-11.836583-35.8106C368.52275 595.82336 364.420315 594.912617 360.396675 594.912617zM204.797851 533.071154c-7.305383 0-14.58416 2.981914-19.844977 8.842389l-34.664497 38.58376c-9.844206 10.963703-8.945743 27.827789 2.018983 37.658691 10.93812 9.870812 27.801183 8.959046 37.658691-2.004657l34.664497-38.58376c9.844206-10.964726 8.93244-27.827789-2.018983-37.659715C217.520617 535.323451 211.140303 533.071154 204.797851 533.071154zM656.788106 594.912617c-4.02364 0-8.112772 0.911766-11.967566 2.851954-13.151531 6.614651-18.451234 22.644743-11.82328 35.8106l24.689309 49.066509c6.588045 13.139252 22.593578 18.47784 35.8106 11.82328 13.151531-6.614651 18.451234-22.644743 11.824303-35.8106l-24.690332-49.066509C675.956677 600.276788 666.55454 594.912617 656.788106 594.912617zM812.38693 533.071154c-6.341429 0-12.709463 2.252297-17.813714 6.836709-10.951423 9.830903-11.849886 26.694989-2.00568 37.659715l34.664497 38.58376c9.844206 10.93812 26.681686 11.863189 37.659715 2.004657 10.9504-9.830903 11.849886-26.694989 2.004657-37.658691l-34.663474-38.58376C826.97109 536.053068 819.691289 533.071154 812.38693 533.071154z"  horiz-adv-x="1024" />

    
    <glyph glyph-name="guanbi" unicode="&#58953;" d="M889.104707 508.311237l70.419839 75.851549-19.678178 18.260899-70.236668-75.641771C692.654476 344.093105 514.610454 349.682403 512.432859 349.472626 282.437627 350.600309 86.775342 583.349257 84.820827 585.711048l-20.688181-17.158798c4.218068-5.081739 57.688887-68.527746 140.991128-129.708154l-77.419254-94.330412 20.780279-17.054421 78.625732 95.801926c45.570895-31.146371 98.579179-60.231803 156.648736-79.054497l-34.639938-117.182886 25.764803-7.608282 34.744315 117.550253c32.855292-8.635681 66.927295-14.161534 102.120842-14.33345 0.603751-0.052189 2.295276-0.105401 4.972245-0.105401 13.709233 0 53.500495 1.684362 108.149139 18.088984l30.854728-175.038572 26.447349 4.670369L650.64264 349.098095c48.557926 17.454534 106.129132 46.603411 166.388565 94.158497l55.990199-100.527554 23.481807 13.065574-58.413388 104.879676C854.996888 475.131557 872.018563 490.670461 889.104707 508.311237z"  horiz-adv-x="1024" />

    
    <glyph glyph-name="guanbi1" unicode="&#58954;" d="M507.995803 518.301775c-74.200956 0-134.559649-62.370513-134.559649-139.01717 0-76.650751 60.358693-139.021264 134.559649-139.021264 74.195839 0 134.554532 62.370513 134.554532 139.021264C642.550335 455.931263 582.191642 518.301775 507.995803 518.301775zM511.954975 62.871165c-195.836247 0-369.82593 121.606639-443.253266 309.798788l-4.397147 11.356652 4.397147 11.330046c73.466222 188.19215 247.455905 309.773206 443.253266 309.773206 195.848527 0 369.864816-121.606639 443.331038-309.798788l4.41045-11.330046-4.41045-11.330046C881.858676 184.477804 707.842387 62.871165 511.954975 62.871165zM92.706425 384.025583l0.685615-1.759063c69.418023-177.922249 233.720066-292.907073 418.561911-292.907073 184.894034 0 349.222683 114.984824 418.652985 292.932656l0.660032 1.706875-0.660032 1.706875c-69.456908 177.947831-233.797837 292.932656-418.652985 292.932656-184.80296 0-349.106026-114.984824-418.575214-292.907073L92.706425 384.025583z"  horiz-adv-x="1024" />

    
    <glyph glyph-name="xianshimima" unicode="&#58997;" d="M507.995803 518.301775c-74.200956 0-134.559649-62.370513-134.559649-139.01717 0-76.650751 60.358693-139.021264 134.559649-139.021264 74.195839 0 134.554532 62.370513 134.554532 139.021264C642.550335 455.931263 582.191642 518.301775 507.995803 518.301775zM511.954975 62.871165c-195.836247 0-369.82593 121.606639-443.253266 309.798788l-4.397147 11.356652 4.397147 11.330046c73.466222 188.19215 247.455905 309.773206 443.253266 309.773206 195.848527 0 369.864816-121.606639 443.331038-309.798788l4.41045-11.330046-4.41045-11.330046C881.858676 184.477804 707.842387 62.871165 511.954975 62.871165zM92.706425 384.025583l0.685615-1.759063c69.418023-177.922249 233.720066-292.907073 418.561911-292.907073 184.894034 0 349.222683 114.984824 418.652985 292.932656l0.660032 1.706875-0.660032 1.706875c-69.456908 177.947831-233.797837 292.932656-418.652985 292.932656-184.80296 0-349.106026-114.984824-418.575214-292.907073L92.706425 384.025583z"  horiz-adv-x="1024" />

    
    <glyph glyph-name="buxianshimima" unicode="&#58998;" d="M889.104707 508.311237l70.419839 75.851549-19.678178 18.260899-70.236668-75.641771C692.654476 344.093105 514.610454 349.682403 512.432859 349.472626 282.437627 350.600309 86.775342 583.349257 84.820827 585.711048l-20.688181-17.158798c4.218068-5.081739 57.688887-68.527746 140.991128-129.708154l-77.419254-94.330412 20.780279-17.054421 78.625732 95.801926c45.570895-31.146371 98.579179-60.231803 156.648736-79.054497l-34.639938-117.182886 25.764803-7.608282 34.744315 117.550253c32.855292-8.635681 66.927295-14.161534 102.120842-14.33345 0.603751-0.052189 2.295276-0.105401 4.972245-0.105401 13.709233 0 53.500495 1.684362 108.149139 18.088984l30.854728-175.038572 26.447349 4.670369L650.64264 349.098095c48.557926 17.454534 106.129132 46.603411 166.388565 94.158497l55.990199-100.527554 23.481807 13.065574-58.413388 104.879676C854.996888 475.131557 872.018563 490.670461 889.104707 508.311237z"  horiz-adv-x="1024" />

    
    <glyph glyph-name="caozuo-xianshihaoma" unicode="&#58955;" d="M512.012 120.262c-176.824 0-341.013 96.552-428.502 251.966l-6.617 11.773 6.617 11.773c87.489 155.412 251.678 251.964 428.502 251.964 176.848 0 341.036-96.552 428.477-251.989l6.617-11.749-6.617-11.748c-87.44-155.462-251.629-251.99-428.477-251.99zM132.183 384c80.536-133.428 224.824-215.785 379.853-215.785 155.054 0 299.342 82.333 379.853 215.785-80.488 133.451-224.801 215.785-379.853 215.785-155.030 0-299.342-82.357-379.853-215.785zM364.583 384.385c0-81 65.664-146.662 146.662-146.662s146.662 65.664 146.662 146.662-65.664 146.662-146.662 146.662-146.662-65.664-146.662-146.662z"  horiz-adv-x="1024" />

    
    <glyph glyph-name="chenggong" unicode="&#59565;" d="M878.08 164.725333a32 32 0 0 0-54.88 32.938667A360.789333 360.789333 0 0 1 874.666667 384c0 200.298667-162.368 362.666667-362.666667 362.666667S149.333333 584.298667 149.333333 384s162.368-362.666667 362.666667-362.666667a360.789333 360.789333 0 0 1 186.314667 51.445334 32 32 0 0 0 32.928-54.88A424.778667 424.778667 0 0 0 512-42.666667C276.362667-42.666667 85.333333 148.362667 85.333333 384S276.362667 810.666667 512 810.666667s426.666667-191.029333 426.666667-426.666667c0-78.293333-21.152-153.568-60.586667-219.274667zM374.581333 406.549333l84.341334-83.989333 190.432 190.72a32 32 0 0 0 45.290666-45.226667l-213.013333-213.333333a32 32 0 0 0-45.226667-0.064l-106.986666 106.549333a32 32 0 1 0 45.162666 45.344z"  horiz-adv-x="1024" />

    
    <glyph glyph-name="nan" unicode="&#59571;" d="M795.189333 719.082667H682.666667a32 32 0 1 0 0 64h192a32 32 0 0 0 32-32v-192a32 32 0 1 0-64 0V676.053333l-105.866667-105.866666A350.613333 350.613333 0 0 0 821.333333 341.333333c0-194.4-157.6-352-352-352S117.333333 146.933333 117.333333 341.333333s157.6 352 352 352a350.538667 350.538667 0 0 0 221.6-78.506666l104.256 104.256zM469.333333 53.333333c159.061333 0 288 128.938667 288 288S628.394667 629.333333 469.333333 629.333333 181.333333 500.394667 181.333333 341.333333s128.938667-288 288-288z"  horiz-adv-x="1024" />

    
    <glyph glyph-name="nv" unicode="&#59572;" d="M485.333333 128v43.765333C321.077333 185.312 192 322.912 192 490.666667 192 667.402667 335.264 810.666667 512 810.666667c176.736 0 320-143.264 320-320 0-164.106667-123.52-299.349333-282.666667-317.845334V128H640a32 32 0 0 0 0-64h-90.666667v-77.333333a32 32 0 0 0-64 0V64H384a32 32 0 0 0 0 64h101.333333zM512 234.666667c141.386667 0 256 114.613333 256 256S653.386667 746.666667 512 746.666667 256 632.053333 256 490.666667s114.613333-256 256-256z"  horiz-adv-x="1024" />

    
    <glyph glyph-name="shanchu" unicode="&#59574;" d="M202.666667 640h-42.666667a32 32 0 0 0 0 64h704a32 32 0 0 0 0-64H266.666667v-565.333333a53.333333 53.333333 0 0 1 53.333333-53.333334h384a53.333333 53.333333 0 0 1 53.333333 53.333334V544a32 32 0 0 0 64 0v-469.333333c0-64.8-52.533333-117.333333-117.333333-117.333334H320c-64.8 0-117.333333 52.533333-117.333333 117.333334V640z m224 106.666667a32 32 0 0 0 0 64h170.666666a32 32 0 0 0 0-64H426.666667z m-32-288a32 32 0 0 0 64 0v-256a32 32 0 0 0-64 0V458.666667z m170.666666 0a32 32 0 0 0 64 0v-256a32 32 0 0 0-64 0V458.666667z"  horiz-adv-x="1024" />

    
    <glyph glyph-name="shangchuan" unicode="&#59575;" d="M565.333333 116.085333l51.445334 54.912a31.733333 31.733333 0 0 0 45.226666 1.226667 32.64 32.64 0 0 0 1.216-45.770667l-97.418666-104a37.034667 37.034667 0 0 0-52.821334-1.397333l-108.362666 104.202667a32.64 32.64 0 0 0-1.152 45.770666 31.733333 31.733333 0 0 0 45.248 1.173334L501.333333 121.578667V383.925333c0 17.877333 14.325333 32.373333 32 32.373334s32-14.506667 32-32.373334v-267.84zM512 757.333333c123.018667 0 228.213333-86.709333 259.424-206.88C864.298667 548.853333 938.666667 469.909333 938.666667 373.312c0-97.6-75.914667-177.173333-170.133334-177.173333-17.674667 0-32 14.496-32 32.373333 0 17.877333 14.325333 32.373333 32 32.373333 58.357333 0 106.133333 50.08 106.133334 112.426667 0 62.336-47.776 112.416-106.133334 112.416-5.856 0-11.626667-0.501333-17.301333-1.482667-17.621333-3.050667-34.304 9.098667-37.024 26.986667C698.346667 615.306667 612.714667 692.576 512 692.576c-73.834667 0-140.928-41.536-177.376-107.861333a31.914667 31.914667 0 0 0-30.122667-16.576 140.373333 140.373333 0 0 1-9.568 0.32c-80.149333 0-145.6-68.586667-145.6-153.781334 0-85.184 65.450667-153.792 145.6-153.792 17.674667 0 32-14.496 32-32.373333 0-17.877333-14.325333-32.373333-32-32.373333C178.912 196.138667 85.333333 294.229333 85.333333 414.677333c0 118.314667 90.293333 215.061333 203.456 218.453334C338.090667 709.76 421.013333 757.333333 512 757.333333z"  horiz-adv-x="1024" />

    
    <glyph glyph-name="shoucang" unicode="&#59577;" d="M335.008-20.629333c-35.914667-22.314667-82.88-10.773333-104.693333 25.557333a77.333333 77.333333 0 0 0-8.96 57.429333l46.485333 198.24a13.141333 13.141333 0 0 1-4.021333 12.864l-152.16 132.586667c-31.605333 27.52-35.253333 75.648-8.234667 107.733333a75.68 75.68 0 0 0 51.733333 26.752L354.848 556.8c4.352 0.362667 8.245333 3.232 10.026667 7.594667l76.938666 188.170666c16.032 39.2 60.618667 57.92 99.52 41.461334a76.309333 76.309333 0 0 0 40.832-41.461334l76.938667-188.16c1.781333-4.373333 5.674667-7.253333 10.026667-7.605333l199.712-16.277333c41.877333-3.413333 72.885333-40.458667 69.568-82.517334a76.938667 76.938667 0 0 0-26.08-51.978666l-152.16-132.586667c-3.541333-3.082667-5.141333-8.074667-4.021334-12.853333l46.485334-198.24c9.621333-41.013333-15.36-82.336-56.138667-92.224a75.285333 75.285333 0 0 0-57.525333 9.237333l-170.976 106.24a11.296 11.296 0 0 1-12.010667 0l-170.986667-106.24zM551.786667 139.968l170.976-106.24c2.624-1.621333 5.717333-2.122667 8.650666-1.408 6.410667 1.557333 10.56 8.426667 8.928 15.424l-46.485333 198.24a77.141333 77.141333 0 0 0 24.277333 75.733333L870.293333 454.293333c2.485333 2.165333 4.053333 5.312 4.330667 8.746667 0.565333 7.136-4.490667 13.173333-10.976 13.696l-199.712 16.288a75.989333 75.989333 0 0 0-64.064 47.168l-76.938667 188.16a12.309333 12.309333 0 0 1-6.538666 6.741333c-5.898667 2.496-12.725333-0.373333-15.328-6.741333l-76.949334-188.16a75.989333 75.989333 0 0 0-64.064-47.168l-199.701333-16.288a11.68 11.68 0 0 1-7.978667-4.181333 13.226667 13.226667 0 0 1 1.333334-18.261334l152.16-132.586666a77.141333 77.141333 0 0 0 24.277333-75.733334l-46.485333-198.229333a13.333333 13.333333 0 0 1 1.514666-9.877333c3.488-5.792 10.581333-7.530667 16.064-4.128l170.986667 106.229333a75.296 75.296 0 0 0 79.562667 0z"  horiz-adv-x="1024" />

    
    <glyph glyph-name="tupian" unicode="&#59578;" d="M938.666667 342.08V128c0-64.8-52.533333-117.333333-117.333334-117.333333H202.666667c-64.8 0-117.333333 52.533333-117.333334 117.333333V640c0 64.8 52.533333 117.333333 117.333334 117.333333h618.666666c64.8 0 117.333333-52.533333 117.333334-117.333333v-297.92z m-64 74.624V640a53.333333 53.333333 0 0 1-53.333334 53.333333H202.666667a53.333333 53.333333 0 0 1-53.333334-53.333333v-344.48A290.090667 290.090667 0 0 0 192 298.666667a286.88 286.88 0 0 0 183.296-65.845334C427.029333 367.616 556.906667 458.666667 704 458.666667c65.706667 0 126.997333-16.778667 170.666667-41.962667z m0-82.24c-5.333333 8.32-21.130667 21.653333-43.648 32.917333C796.768 384.512 753.045333 394.666667 704 394.666667c-121.770667 0-229.130667-76.266667-270.432-188.693334-2.730667-7.445333-7.402667-20.32-13.994667-38.581333-7.68-21.301333-34.453333-28.106667-51.370666-13.056-16.437333 14.634667-28.554667 25.066667-36.138667 31.146667A222.890667 222.890667 0 0 1 192 234.666667c-14.464 0-28.725333-1.365333-42.666667-4.053334V128a53.333333 53.333333 0 0 1 53.333334-53.333333h618.666666a53.333333 53.333333 0 0 1 53.333334 53.333333V334.474667zM320 416a96 96 0 1 0 0 192 96 96 0 0 0 0-192z m0 64a32 32 0 1 1 0 64 32 32 0 0 1 0-64z"  horiz-adv-x="1024" />

    
    <glyph glyph-name="xiangkan" unicode="&#59580;" d="M512 710.506667C567.786667 757.824 608.213333 778.666667 667.786667 778.666667c126.229333 0 212.714667-76.736 248.341333-202.848a32 32 0 0 0-61.589333-17.386667C826.208 658.688 763.125333 714.666667 667.786667 714.666667c-41.514667 0-70.357333-15.253333-117.077334-55.253334-2.165333-1.856-14.4-12.416-17.952-15.434666a32 32 0 0 0-41.514666 0c-3.552 3.018667-15.786667 13.578667-17.952 15.434666-46.72 40-75.562667 55.253333-117.077334 55.253334C230.112 714.666667 149.333333 613.632 149.333333 467.904c0-110.965333 113.269333-248.885333 343.573334-408.8a32.522667 32.522667 0 0 1 37.205333 0.16c47.445333 33.536 78.997333 56.426667 94.282667 68.373333a32 32 0 1 0 39.413333-50.432c-16.362667-12.778667-48.48-36.085333-96.746667-70.208a96.522667 96.522667 0 0 0-110.666666-0.458666C210.272 177.44 85.333333 329.568 85.333333 467.904 85.333333 646.229333 191.221333 778.666667 356.213333 778.666667 415.786667 778.666667 456.213333 757.824 512 710.506667zM821.333333 341.333333h85.333334a32 32 0 0 0 0-64h-85.333334v-85.333333a32 32 0 0 0-64 0v85.333333h-85.333333a32 32 0 0 0 0 64h85.333333v85.333334a32 32 0 0 0 64 0v-85.333334z"  horiz-adv-x="1024" />

    
    <glyph glyph-name="yixiangkan" unicode="&#59583;" d="M356.266667 778.666667c59.584 0 100.021333-20.842667 155.818666-68.16C567.872 757.824 608.32 778.666667 667.904 778.666667c126.261333 0 212.746667-76.736 248.384-202.848a32 32 0 1 0-61.6-17.386667C826.357333 658.688 763.274667 714.666667 667.914667 714.666667c-41.536 0-70.389333-15.253333-117.12-55.253334-2.165333-1.856-14.4-12.416-17.941334-15.434666a32.010667 32.010667 0 0 0-41.536 0c-3.541333 3.018667-15.786667 13.578667-17.952 15.434666C426.645333 699.413333 397.792 714.666667 356.266667 714.666667 230.133333 714.666667 149.333333 613.632 149.333333 467.904c0-110.965333 113.290667-248.885333 343.637334-408.8a32.533333 32.533333 0 0 1 37.216 0.16c47.456 33.536 79.018667 56.426667 94.293333 68.373333a32.010667 32.010667 0 0 0 39.424-50.432c-16.352-12.778667-48.48-36.085333-96.768-70.208a96.554667 96.554667 0 0 0-110.677333-0.458666C210.293333 177.44 85.333333 329.568 85.333333 467.904 85.333333 646.229333 191.242667 778.666667 356.266667 778.666667z m388-555.392a31.925333 31.925333 0 0 0-22.773334 8.704l-93.184 87.84a29.824 29.824 0 0 0 0 43.413333l1.077334 1.013333a32 32 0 0 0 43.904 0l70.976-66.912 140.053333 132.021334a32 32 0 0 0 43.904 0l1.066667-1.013334a29.824 29.824 0 0 0 0-43.413333L767.04 231.968a31.925333 31.925333 0 0 0-22.762667-8.693333z"  horiz-adv-x="1024" />

    
    <glyph glyph-name="weibiaoti--1" unicode="&#58951;" d="M231.8 417.4c-16-16-16-41.9 0-57.9l388.6-388.6c16-16 41.9-16 57.9 0s16 41.9 0 57.9L289.7 417.4c-16 16-41.9 16-57.9 0zM231.8 358.1c16-16 41.9-16 57.9 0l388.6 388.6c16 16 16 41.9 0 57.9s-41.9 16-57.9 0L231.8 416c-16-16-16-41.9 0-57.9z"  horiz-adv-x="1024" />

    
    <glyph glyph-name="07" unicode="&#58950;" d="M419.622615 106.54748600000005h205.944134v-131.575419c0-56.869184-46.108603-102.972067-102.972067-102.972067-56.874905 0-102.972067 46.102883-102.972067 102.972067v131.575419zM118.023151 324.99700600000006c0-50.330458 40.799821-91.130279 91.130279-91.13028 50.324737 0 91.124559 40.799821 91.124559 91.13028 0 50.324737-40.799821 91.124559-91.13028 91.124558-50.324737 0-91.124559-40.799821-91.124558-91.130279zM749.407821 569.921788m-91.530726 0a91.530726 91.530726 0 1 1 183.061452 0 91.530726 91.530726 0 1 1-183.061452 0ZM423.329609 687.195531a185.921788 180.201117 90 1 1 360.402235 0 185.921788 180.201117 90 1 1-360.402235 0ZM486.256983 758.7039110000001h11.441341c164.291933 0 297.47486-133.182927 297.47486-297.474861v-205.944134c0-164.291933-133.182927-297.47486-297.47486-297.47486h-11.441341c-164.291933 0-297.47486 133.182927-297.47486 297.47486V461.22905c0 164.291933 133.182927 297.47486 297.47486 297.474861zM400.446927 741.5418990000001m-154.4581 0a154.458101 154.458101 0 1 1 308.916201 0 154.458101 154.458101 0 1 1-308.916201 0ZM503.418994 730.100559a91.530726 88.670391 90 1 1 177.340783 0 91.530726 88.670391 90 1 1-177.340783 0ZM314.636872 169.47486000000004c0-63.190525 51.222883-114.413408 114.413407-114.413407s114.413408 51.222883 114.413408 114.413407H314.636872zM725.529743 330.717676c0-50.330458 40.799821-91.130279 91.124559-91.130279s91.130279 40.799821 91.130279 91.130279c0 50.324737-40.805542 91.124559-91.130279 91.124559s-91.130279-40.799821-91.13028-91.13028zM776.151955 335.12259200000005a40.502346 40.502346 0 1 1 81.004693-0.017162 40.502346 40.502346 0 0 1-81.004693 0.017162zM209.147709 456.623911a81.004693 81.004693 0 1 1 162.003665 0c0 44.735642-36.26905 80.998972-81.004692 80.998972s-80.998972-36.26905-80.998973-81.004693zM249.650056 451.561117a35.439553 35.439553 0 1 1 70.879106 0 35.439553 35.439553 0 0 1-70.879106 0zM492.652693 456.623911c0-44.735642 36.26905-81.004693 81.004692-81.004693s80.993251 36.26905 80.993252 81.004693-36.26333 80.998972-80.998972 80.998972-81.004693-36.26905-81.004693-81.004693zM533.155039 451.561117a35.439553 35.439553 0 1 1 70.873386 0 35.439553 35.439553 0 0 1-70.879107 0z"  horiz-adv-x="1024" />

    
    <glyph glyph-name="05" unicode="&#58949;" d="M420.135822 105.24444400000004h204.8v-130.844444c0-56.553244-45.852444-102.4-102.4-102.4-56.558933 0-102.4 45.846756-102.4 102.4v130.844444zM120.211911 322.48035600000003c0-50.050844 40.573156-90.624 90.624-90.624 50.045156 0 90.618311 40.573156 90.618311 90.624 0 50.045156-40.573156 90.618311-90.624 90.618311-50.045156 0-90.618311-40.573156-90.618311-90.624zM412.444444 708.266667a164.977778 159.288889 90 1 1 318.577778 0 164.977778 159.288889 90 1 1-318.577778 0ZM492.760178 785.646933c166.832356 0 302.062933-135.236267 302.062933-302.068622v-342.340267c0-88.974222-72.123733-161.097956-161.097955-161.097955H311.517867c-66.724978 0-120.820622 54.101333-120.820623 120.826311V483.578311c0 166.832356 135.230578 302.068622 302.062934 302.068622zM724.343467 322.48035600000003c0-50.050844 40.573156-90.624 90.618311-90.624s90.624 40.573156 90.624 90.624c0 50.045156-40.578844 90.618311-90.624 90.618311s-90.624-40.573156-90.624-90.624zM774.684444 332.54968899999994a40.277333 40.277333 0 1 1 80.554667-0.017067 40.277333 40.277333 0 0 1-80.554667 0.017067zM210.830222 453.376a80.554667 80.554667 0 1 1 161.103645 0c0 44.487111-36.067556 80.548978-80.554667 80.548978s-80.548978-36.067556-80.548978-80.554667zM251.107556 448.341333a35.242667 35.242667 0 1 1 70.485333 0 35.242667 35.242667 0 0 1-70.485333 0zM492.760178 453.376c0-44.487111 36.067556-80.554667 80.554666-80.554667s80.543289 36.067556 80.543289 80.554667-36.061867 80.548978-80.548977 80.548978-80.554667-36.067556-80.554667-80.554667zM533.037511 448.341333a35.242667 35.242667 0 1 1 70.479645 0 35.242667 35.242667 0 0 1-70.485334 0zM491.8784 307.086222a62.555022 62.555022 0 0 0 61.604978-12.071822l123.062044-107.6736a62.577778 62.577778 0 0 0 7.549156-86.328889l-5.637689-7.003022a62.577778 62.577778 0 0 0-1.649778-1.974045c-22.761244-26.0096-62.293333-28.649244-88.308622-5.893688l-27.886933 24.405333-28.842667-24.786489c-26.208711-22.528-65.718044-19.529956-88.240356 6.684444-0.318578 0.364089-0.625778 0.739556-0.938666 1.115023l-6.360178 7.759644a62.640356 62.640356 0 0 0-8.686933 13.994667l-33.348267-29.172622c-26.015289-22.755556-65.547378-20.115911-88.302933 5.893688a62.577778 62.577778 0 0 0-1.655467 1.974045l-5.637689 6.997333c-1.763556 2.195911-3.356444 4.471467-4.778667 6.815289l-24.7808-21.674667c-26.015289-22.755556-65.547378-20.1216-88.302933 5.888a62.577778 62.577778 0 0 0-1.655467 1.974045l-5.637689 6.997333a62.577778 62.577778 0 0 0 7.543467 86.334578l123.067733 107.6736c26.0096 22.755556 65.547378 20.115911 88.302934-5.893689a62.577778 62.577778 0 0 0 1.649778-1.974044l5.643377-6.997334c1.763556-2.195911 3.356444-4.471467 4.778667-6.815289l24.7808 21.674667a62.560711 62.560711 0 0 0 62.139733 11.889778zM407.176533 463.445333a35.9424 35.9424 0 0 0 33.769245-23.665777l37.558044-103.281778a70.485333 70.485333 0 0 0-66.224355-94.5664h-15.911823a70.485333 70.485333 0 0 0-65.223111 97.166222l41.329778 101.046044a37.495467 37.495467 0 0 0 34.702222 23.301689zM406.755556 742.4m-153.6 0a153.6 153.6 0 1 1 307.2 0 153.6 153.6 0 1 1-307.2 0ZM509.155556 731.022222a91.022222 88.177778 90 1 1 176.355555 0 91.022222 88.177778 90 1 1-176.355555 0ZM189.943536 559.83586m32.811066 9.408421l87.496175 25.089125q32.811066 9.408422 42.219488-23.402644l0 0q9.408422-32.811066-23.402644-42.219488l-87.496176-25.089124q-32.811066-9.408422-42.219488 23.402644l0 0q-9.408422 32.811066 23.402645 42.219487ZM471.33078 610.014109m32.811066-9.408422l131.244263-37.633687q32.811066-9.408422 23.402644-42.219487l0 0q-9.408422-32.811066-42.219487-23.402645l-131.244264 37.633687q-32.811066 9.408422-23.402644 42.219488l0 0q9.408422 32.811066 42.219488 23.402644Z"  horiz-adv-x="1024" />

    
    <glyph glyph-name="loop" unicode="&#59037;" d="M606.896 508.464H408c-92.784 0-168-75.216-168-168 0-92.8 75.216-168 168-168h224c87.2 0 158.88 66.416 167.2 151.424l0.16 1.808a16 16 0 0 0 15.936 14.768h17.344a14.832 14.832 0 0 0 14.784-15.904c-8.144-111.872-101.472-200.096-215.424-200.096h-224c-119.296 0-216 96.704-216 216s96.704 216 216 216h194.144l-29.456 29.456a16 16 0 0 0-4.688 11.312v28.304a14.464 14.464 0 0 0 24.688 10.24l97.824-97.824a11.136 11.136 0 0 0 0-15.744l-97.824-97.808a14.464 14.464 0 0 0-24.688 10.24v28.288a16 16 0 0 0 4.688 11.312l34.208 34.224z"  horiz-adv-x="1024" />

    
    <glyph glyph-name="singlecycle" unicode="&#59039;" d="M606.896 508.464H408c-92.784 0-168-75.216-168-168 0-92.8 75.216-168 168-168h224c87.2 0 158.88 66.416 167.2 151.424l0.16 1.808a16 16 0 0 0 15.936 14.768h17.344a14.832 14.832 0 0 0 14.784-15.904c-8.144-111.872-101.472-200.096-215.424-200.096h-224c-119.296 0-216 96.704-216 216s96.704 216 216 216h194.144l-29.456 29.456a16 16 0 0 0-4.688 11.312v28.304a14.464 14.464 0 0 0 24.688 10.24l97.824-97.824a11.136 11.136 0 0 0 0-15.744l-97.824-97.808a14.464 14.464 0 0 0-24.688 10.24v28.288a16 16 0 0 0 4.688 11.312l34.208 34.224z m-169.968-155.136V389.28c25.312 3.36 43.456 14.112 54.432 32.256h32.928v-177.072h-44.352v125.328c-8.96-6.944-23.296-12.432-43.008-16.48z"  horiz-adv-x="1024" />

    
    <glyph glyph-name="next" unicode="&#59042;" d="M340.688 65.76l11.312-11.328a16 16 0 0 1 22.624 0L685.76 365.552a16 16 0 0 1 0 22.64L374.624 699.312a16 16 0 0 1-22.624 0l-11.312-11.312a16 16 0 0 1 0-22.624l288.496-288.496-288.496-288.512a16 16 0 0 1 0-22.624z"  horiz-adv-x="1024" />

    
    <glyph glyph-name="icon-test3" unicode="&#58948;" d="M544 672h-64v-288c0-8.832 3.584-16.832 9.376-22.656l192-191.968 45.248 45.248L544 397.248V672zM512 0C300.256 0 128 172.256 128 384S300.256 768 512 768s384-172.256 384-384-172.256-384-384-384m0 832C264.576 832 64 631.424 64 384s200.576-448 448-448 448 200.576 448 448S759.424 832 512 832"  horiz-adv-x="1024" />

    
    <glyph glyph-name="icon-test9" unicode="&#58968;" d="M434.944 105.376l-45.248 45.248L623.04 384l-233.376 233.376 45.248 45.248L713.568 384z"  horiz-adv-x="1024" />

    
    <glyph glyph-name="weibiaoti--" unicode="&#58924;" d="M847.9 50.7H807h16.2c13.8 0.8 24.7 12.2 24.7 26.2v-26.2zM186.3 50.7h40.9H211c-13.8 0.8-24.7 12.2-24.7 26.2v-26.2zM847.9 712.5H807h16.2c13.8-0.8 24.7-12.2 24.7-26.2v26.2zM186.3 712.5h40.9H211c-13.8-0.8-24.7-12.2-24.7-26.2v26.2zM1004.6 381.6c0-22.6-18.3-41-41-41H71.2c-22.6 0-41 18.3-41 41 0 22.6 18.3 41 41 41h892.5c22.6 0 40.9-18.4 40.9-41zM866.2-31c35.4 2.4 63.4 31.9 63.4 67.9v0.5h0.1V247.7c0 22.6-18.3 41-41 41-22.6 0-41-18.3-41-41v-196.8H186.4V247.7c0 22.6-18.3 41-41 41-22.6 0-41-18.3-41-41v-156h0.1v-54.5c0-37.6 30.5-68.1 68.1-68.1h0.5v-0.1h693.1zM862.2 794.1h-0.5v0.1H163c-31.8-4.4-56.6-30.7-58.5-63.3v-215.5c0-22.6 18.3-41 41-41 22.6 0 41 18.3 41 41V712.3h661.4v-196.8c0-22.6 18.3-41 41-41 22.6 0 41 18.3 41 41V734.4c-4.3 33.7-33 59.7-67.7 59.7z"  horiz-adv-x="1024" />

    
    <glyph glyph-name="qiandao" unicode="&#59015;" d="M835.9 709.6H732c0.3 1.7 0.5 3.4 0.5 5.2v56.5c0 18.1-14.4 32.8-31.9 32.8-17.6 0-31.9-14.8-31.9-32.8v-56.5c0-1.8 0.2-3.5 0.5-5.2H353.5c0.3 1.7 0.5 3.4 0.5 5.2v56.5c0 18.1-14.4 32.8-31.9 32.8-17.6 0-31.9-14.8-31.9-32.8v-56.5c0-1.8 0.2-3.5 0.5-5.2H186.8c-67.8 0-122.9-56.7-122.9-126.3v-493.4c0-69.7 55.2-126.3 122.9-126.3h649.1c67.8 0 122.9 56.7 122.9 126.3V583.2c0 69.7-55.1 126.4-122.9 126.4zM904 89.8c0-38.6-30.5-70-68.1-70H186.8c-37.5 0-68.1 31.4-68.1 70V473.5H904v-383.7z m0 438.7H118.7v54.7c0 38.6 30.5 70 68.1 70h649.1c37.5 0 68.1-31.4 68.1-70v-54.7zM199.8 179.6c13.7 0 24.8 11.4 24.8 25.5s-11.1 25.5-24.8 25.5c-13.7 0-24.8-11.4-24.8-25.5s11.1-25.5 24.8-25.5zM218 142.5v0.1 0.8h-0.2c-0.5 11.6-9.1 20.9-19.8 20.9-10.7 0-19.3-9.3-19.8-20.9h-0.1c0.4-58.7 17.7-76.8 72.4-76.8h204.8c11 0 20 9.8 20 21.8s-8.9 21.8-20 21.8H250.6c-32.3 0-32.6-0.7-32.6 32.3zM178.1 143.5v2.2-2.2zM468.8 182.6c4.4-4.5 10.2-7 16.4-7 4.1 0 8.1 1.1 11.4 3.1 2.1 1.1 4 2.6 5.7 4.3l184.1 189.3c9 9.3 9 24.5 0 33.8-4.4 4.5-10.2 7-16.4 7s-12-2.5-16.4-7l-168.3-173-83.4 85.8c-4.4 4.5-10.2 7-16.4 7-6.2 0-12-2.5-16.4-7-9-9.3-9-24.5 0-33.8l99.7-102.5zM835.9 653.2H186.8c-37.5 0-68.1-31.4-68.1-70v-54.7H904v54.7c0 38.6-30.6 70-68.1 70z"  horiz-adv-x="1024" />

    
    <glyph glyph-name="gongchengyuguidang" unicode="&#58925;" d="M0 896m153.6 0l716.8 0q153.6 0 153.6-153.6l0-716.8q0-153.6-153.6-153.6l-716.8 0q-153.6 0-153.6 153.6l0 716.8q0 153.6 153.6 153.6ZM205.1584 506.70592h39.90016l47.5648-56.7808h434.2528l46.03392 56.7808h46.03392v-306.8928c0-67.51744-55.23968-122.75712-122.75712-122.75712H327.91552c-67.51744 0-122.75712 55.23968-122.75712 122.75712v306.8928z m204.0832-194.87744v41.43104c0 10.74176-9.20576 19.94752-19.94752 19.94752s-19.94752-9.20576-19.94752-19.94752v-61.37856c0-10.74176 9.20576-19.94752 19.94752-19.94752h256.256c10.74176 0 19.94752 9.20576 19.94752 19.94752v61.37856c0 10.74176-9.20576 19.94752-19.94752 19.94752s-19.94752-9.20576-19.94752-19.94752v-41.43104H409.2416zM266.53696 568.08448h491.02848v-41.43104l-41.43104-50.6368H307.968l-41.43104 50.6368zM266.53696 690.8416h491.02848v-41.43104l-41.43104-50.6368H307.968l-41.43104 50.6368z"  horiz-adv-x="1024" />

    
    <glyph glyph-name="yunyingribao" unicode="&#58926;" d="M0 896m153.6 0l716.8 0q153.6 0 153.6-153.6l0-716.8q0-153.6-153.6-153.6l-716.8 0q-153.6 0-153.6 153.6l0 716.8q0 153.6 153.6 153.6ZM266.24 691.2h491.52a20.48 20.48 0 0 0 20.48-20.48v-532.48c0-33.93024-27.50976-61.44-61.44-61.44H307.2c-33.93024 0-61.44 27.50976-61.44 61.44V670.72a20.48 20.48 0 0 0 20.48 20.48zM655.63136 240.65536H369.0752a20.51072 20.51072 0 1 1 0-41.02144h286.68928a20.51072 20.51072 0 1 1 0 41.02144h-0.13312z m0 102.32832H369.0752a20.46464 20.46464 0 1 1 0-40.9344h286.68928a20.48512 20.48512 0 0 1 0 40.97536h-0.13312v-0.04096z m0 245.7088a40.97536 40.97536 0 0 1-40.97536-40.97024 36.7616 36.7616 0 0 1 2.02752-9.96864l-53.4528-53.41184a38.6816 38.6816 0 0 1-9.96864 2.0736c-2.83648-0.256-5.632-0.83456-8.33536-1.72032l-34.31936 34.31424a37.35552 37.35552 0 0 1 1.67936 8.4224 40.97536 40.97536 0 0 1-81.90464 0 37.0688 37.0688 0 0 1 2.02752-10.0096l-53.4528-53.4528a38.72768 38.72768 0 0 1-9.8816 1.98144 40.97536 40.97536 0 1 1 40.84224-40.9344 38.63552 38.63552 0 0 1-2.03264 10.01472l53.45792 53.37088a38.77376 38.77376 0 0 1 10.01472-1.98656 38.15424 38.15424 0 0 1 9.39008 1.8944l33.47968-33.47456c-1.024-3.04128-1.664-6.1952-1.8944-9.3952a40.97536 40.97536 0 0 1 81.85856 0 38.6816 38.6816 0 0 1-1.98656 10.0096l53.41184 53.59104a40.7808 40.7808 0 0 1 10.01472-2.02752 40.97536 40.97536 0 1 1 0 81.90464v-0.26624 0.04608z"  horiz-adv-x="1024" />

    
    <glyph glyph-name="shiwuzichan" unicode="&#58927;" d="M0 896m153.6 0l716.8 0q153.6 0 153.6-153.6l0-716.8q0-153.6-153.6-153.6l-716.8 0q-153.6 0-153.6 153.6l0 716.8q0 153.6 153.6 153.6ZM634.88 691.2a20.48 20.48 0 0 0 20.48-20.48v-194.56c0-39.58784-32.09216-71.68-71.68-71.68H440.32c-39.58784 0-71.68 32.09216-71.68 71.68V670.72a20.48 20.48 0 0 0 20.48 20.48h245.76z m-71.68-40.96H460.8a15.36 15.36 0 0 1 0-30.72h102.4a15.36 15.36 0 0 1 0 30.72zM471.04 363.52a20.48 20.48 0 0 0 20.48-20.48v-194.56c0-39.58784-32.09216-71.68-71.68-71.68H276.48c-39.58784 0-71.68 32.09216-71.68 71.68v194.56a20.48 20.48 0 0 0 20.48 20.48h245.76z m-71.68-40.96H296.96a15.36 15.36 0 0 1 0-30.72h102.4a15.36 15.36 0 0 1 0 30.72zM798.72 363.52a20.48 20.48 0 0 0 20.48-20.48v-194.56c0-39.58784-32.09216-71.68-71.68-71.68h-143.36c-39.58784 0-71.68 32.09216-71.68 71.68v194.56a20.48 20.48 0 0 0 20.48 20.48h245.76z m-71.68-40.96h-102.4a15.36 15.36 0 0 1 0-30.72h102.4a15.36 15.36 0 0 1 0 30.72z"  horiz-adv-x="1024" />

    
    <glyph glyph-name="Glink" unicode="&#58928;" d="M0 896m153.6 0l716.8 0q153.6 0 153.6-153.6l0-716.8q0-153.6-153.6-153.6l-716.8 0q-153.6 0-153.6 153.6l0 716.8q0 153.6 153.6 153.6ZM547.84 896v-568.31488l363.52-0.00512v-235.52H312.32V896h235.52z"  horiz-adv-x="1024" />

    
    <glyph glyph-name="xiangmurenwu" unicode="&#58929;" d="M0 896m153.6 0l716.8 0q153.6 0 153.6-153.6l0-716.8q0-153.6-153.6-153.6l-716.8 0q-153.6 0-153.6 153.6l0 716.8q0 153.6 153.6 153.6ZM798.72 691.2a20.48 20.48 0 0 0 20.48-20.48v-532.48c0-33.93024-27.50976-61.44-61.44-61.44H266.24c-33.93024 0-61.44 27.50976-61.44 61.44V670.72a20.48 20.48 0 0 0 20.48 20.48h573.44z m-404.48-332.8c-33.93024 0-61.44-27.50976-61.44-61.44s27.50976-61.44 61.44-61.44 61.44 27.50976 61.44 61.44-27.50976 61.44-61.44 61.44z m286.72-40.96h-163.84a20.48 20.48 0 1 1 0-40.96h163.84a20.48 20.48 0 1 1 0 40.96z m0 179.2h-163.84a20.48 20.48 0 1 1 0-40.96h163.84a20.48 20.48 0 1 1 0 40.96z m-327.6288-1.87392a20.48 20.48 0 1 1-30.8224-26.97216l35.84-40.96a20.48 20.48 0 0 1 28.89728-1.92512l81.92 71.68a20.48 20.48 0 1 1-26.97216 30.8224l-66.5088-58.19392-22.35392 25.5488zM363.52 296.96a33.1776 33.1776 0 0 1 30.72-30.72 32.8704 32.8704 0 0 1 30.72 30.72 30.72 30.72 0 0 1-30.72 30.72 33.1776 33.1776 0 0 1-30.72-30.72z"  horiz-adv-x="1024" />

    
    <glyph glyph-name="renlikaoqin" unicode="&#58930;" d="M5.12 896m153.6 0l716.8 0q153.6 0 153.6-153.6l0-716.8q0-153.6-153.6-153.6l-716.8 0q-153.6 0-153.6 153.6l0 716.8q0 153.6 153.6 153.6ZM803.84 603.61216a20.48 20.48 0 0 0 20.48-20.48v-430.08c0-33.93536-27.50976-61.44-61.44-61.44H271.36c-33.93024 0-61.44 27.50464-61.44 61.44v430.08a20.48 20.48 0 0 0 20.48 20.48h573.44z m-106.6496-228.89984c17.8176 56.41216-45.52704 40.576-45.52704 40.576l-156.3648-149.44256c-15.84128-14.848-27.71456 0-27.71456 0l-68.29056 69.2736c-60.36992 12.86656-52.4544-44.53376-52.4544-44.53376s84.1216-81.152 107.8784-104.9088c23.04-23.04 52.608-1.37216 54.3488-0.06144l0.08192 0.06144s150.43584 143.50848 188.04224 189.0304zM737.28 547.84H296.96a20.48 20.48 0 0 1-20.48-20.48v-30.72h481.28v30.72a20.48 20.48 0 0 1-20.48 20.48zM378.88 701.44a35.84 35.84 0 0 0 35.84-35.84v-66.56H343.04V665.6a35.84 35.84 0 0 0 35.84 35.84zM655.36 701.44a35.84 35.84 0 0 0 35.84-35.84v-66.56h-71.68V665.6a35.84 35.84 0 0 0 35.84 35.84z"  horiz-adv-x="1029" />

    
    <glyph glyph-name="wuziguanli" unicode="&#58931;" d="M0 896m153.6 0l716.8 0q153.6 0 153.6-153.6l0-716.8q0-153.6-153.6-153.6l-716.8 0q-153.6 0-153.6 153.6l0 716.8q0 153.6 153.6 153.6ZM536.2176 709.2736l266.24-195.24096a40.96 40.96 0 0 0 16.7424-33.024V163.84c0-33.93024-27.50976-61.44-61.44-61.44H266.24c-33.93024 0-61.44 27.50976-61.44 61.44V481.00352a40.96 40.96 0 0 0 16.7424 33.02912l266.24 195.24608a40.96 40.96 0 0 0 48.4352 0zM378.88 291.84H266.24a10.24 10.24 0 0 1-10.24-10.24v-92.16a30.72 30.72 0 0 1 30.72-30.72h71.68a30.72 30.72 0 0 1 30.72 30.72v92.16a10.24 10.24 0 0 1-10.24 10.24z m174.08 0H440.32a10.24 10.24 0 0 1-10.24-10.24v-92.16a30.72 30.72 0 0 1 30.72-30.72h71.68a30.72 30.72 0 0 1 30.72 30.72v92.16a10.24 10.24 0 0 1-10.24 10.24zM378.88 465.92H266.24a10.24 10.24 0 0 1-10.24-10.24v-92.16a30.72 30.72 0 0 1 30.72-30.72h71.68a30.72 30.72 0 0 1 30.72 30.72V455.68a10.24 10.24 0 0 1-10.24 10.24z m-79.36-20.48h46.08a7.68 7.68 0 0 0 0-15.36h-46.08a7.68 7.68 0 0 0 0 15.36z m0-174.08h46.08a7.68 7.68 0 0 0 0-15.36h-46.08a7.68 7.68 0 0 0 0 15.36z m179.2 0h46.08a7.68 7.68 0 0 0 0-15.36h-46.08a7.68 7.68 0 0 0 0 15.36z"  horiz-adv-x="1024" />

    
    <glyph glyph-name="gongchengjiansheanquanpaicha" unicode="&#58932;" d="M0 896m153.6 0l716.8 0q153.6 0 153.6-153.6l0-716.8q0-153.6-153.6-153.6l-716.8 0q-153.6 0-153.6 153.6l0 716.8q0 153.6 153.6 153.6ZM565.09952 697.25696l292.5056-502.50752c17.07008-29.32736 7.13728-66.93888-22.19008-84.00896A61.44 61.44 0 0 0 804.5056 102.4H219.4944c-33.93024 0-61.44 27.50976-61.44 61.44a61.44 61.44 0 0 0 8.34048 30.90944l292.5056 502.50752c17.07008 29.32736 54.6816 39.26016 84.00896 22.19008a61.44 61.44 0 0 0 22.19008-22.19008zM742.98368 138.30144l-50.9184 50.92352c32.01536 39.94624 51.20512 90.624 51.20512 145.72544C743.2192 463.63136 638.57664 568.32 509.8496 568.32 381.21984 568.32 276.48 463.63136 276.48 334.9504c0-128.67584 104.73984-233.46176 233.3696-233.46176 49.87904 0 96.09728 15.72352 134.04672 42.46528l52.34688-52.34176A32.9472 32.9472 0 0 1 719.616 81.92c8.45312 0 16.91136 3.2256 23.36768 9.69216a33.05472 33.05472 0 0 1 0 46.6944z m-409.12384 196.5568c0 96.99328 78.9504 175.98464 175.98976 175.98464 97.09568 0 175.99488-78.8992 175.99488-175.98464 0-96.99328-78.9504-175.98976-175.99488-175.98976s-175.98976 78.99648-175.98976 175.98976zM512 230.4m-30.72 0a30.72 30.72 0 1 1 61.44 0 30.72 30.72 0 1 1-61.44 0ZM481.28 455.68m30.72 0l0 0q30.72 0 30.72-30.72l0-112.64q0-30.72-30.72-30.72l0 0q-30.72 0-30.72 30.72l0 112.64q0 30.72 30.72 30.72Z"  horiz-adv-x="1024" />

    
    <glyph glyph-name="yunyingshigongtiaodu" unicode="&#58933;" d="M0 896m153.6 0l716.8 0q153.6 0 153.6-153.6l0-716.8q0-153.6-153.6-153.6l-716.8 0q-153.6 0-153.6 153.6l0 716.8q0 153.6 153.6 153.6ZM642.62656 390.0416v-61.06624l-292.7872 0.0256c-28.50304 0.0512-51.56352 23.12192-51.58912 51.6096 0.0256 28.48768 23.08608 51.55328 51.58912 51.58912 28.51328-0.03072 51.5584-23.10144 51.60448-51.584v-27.6736H483.9936v27.6736c0 74.09664-60.032 134.144-134.15936 134.16448-74.112-0.0256-134.144-60.07296-134.1696-134.16448 0.0256-74.09664 60.0576-134.15424 134.1696-134.1952h292.7872v-69.31968l143.1552 89.088a20.48 20.48 0 0 1 0 34.78016l-143.1552 89.07776z m-239.46752-299.8784h82.56v130.19136H403.15904v-130.19136z m112.38912 0.01024h82.58048v130.16576h-82.58048v-130.16576z m82.58048 263.18848V529.9712h61.92128l-89.07776 143.14496a20.48 20.48 0 0 1-34.78016 0L447.10912 529.9712h68.43904v-176.60928h82.58048z"  horiz-adv-x="1024" />

    
    <glyph glyph-name="shebeiweixiuweihu" unicode="&#58934;" d="M0 896m153.6 0l716.8 0q153.6 0 153.6-153.6l0-716.8q0-153.6-153.6-153.6l-716.8 0q-153.6 0-153.6 153.6l0 716.8q0 153.6 153.6 153.6ZM798.72 332.8a20.48 20.48 0 0 0 20.48-20.48v-174.08c0-33.93024-27.50976-61.44-61.44-61.44H266.24c-33.93024 0-61.44 27.50976-61.44 61.44v174.08a20.48 20.48 0 0 0 20.48 20.48h573.44z m-384-97.28c-16.9216 0-30.72-13.73184-30.72-30.72 0-16.9216 13.73184-30.72 30.72-30.72 16.9216 0 30.72 13.73184 30.72 30.72 0 16.9216-13.7984 30.72-30.72 30.72z m-97.28 0c-16.9216 0-30.72-13.73184-30.72-30.72 0-16.9216 13.73184-30.72 30.72-30.72 16.9216 0 30.72 13.73184 30.72 30.72 0 16.9216-13.73184 30.72-30.72 30.72z m194.59072 0a30.72 30.72 0 1 1-21.76-52.44928 30.72 30.72 0 0 1 52.44928 21.76c0 16.87552-13.7472 30.68928-30.68928 30.68928zM655.36 459.62752a30.72 30.72 0 0 0 30.72-30.72v-97.28h-61.44v97.28a30.72 30.72 0 0 0 30.72 30.72zM507.12064 509.9008H494.4384c-5.25312 0-10.77248 4.02432-12.3392 9.00608l-6.5536 15.74912c-2.45248 4.56704-1.42848 11.24864 2.2528 14.92992l9.00096 8.86272c1.50016 1.50016 2.4576 3.54816 2.4576 5.79584 0 2.2528-0.89088 4.3008-2.4576 5.79584l-15.27296 15.0016a8.18176 8.18176 0 0 1-5.8624 2.38592c-2.31936 0-4.36224-0.88576-5.8624-2.38592l-9.00096-8.86272c-3.6864-3.61472-10.496-4.63872-15.13472-2.18624l-15.95904 6.48192c-4.97664 1.50016-9.0624 7.01952-9.0624 12.20096v12.47744c0 2.11456-0.8192 4.16256-2.4576 5.79584a8.48896 8.48896 0 0 1-5.8624 2.38592H380.7744c-2.11456 0-4.22912-0.8192-5.86752-2.38592-1.6384-1.56672-2.4576-3.68128-2.4576-5.79584v-12.47744c0-5.18144-4.08576-10.63424-9.0624-12.20096l-15.95392-6.48192c-4.63872-2.45248-11.45856-1.4336-15.13984 2.18624l-8.99584 8.8576a8.29952 8.29952 0 0 1-5.86752 2.39104c-2.2528 0-4.36224-0.88576-5.8624-2.38592l-15.2064-15.0016c-1.50016-1.50016-2.45248-3.54304-2.45248-5.79584 0-2.2528 0.95232-4.29568 2.4576-5.79584l8.99584-8.8576c3.6864-3.6864 4.7104-10.368 2.2528-14.93504l-6.54848-15.74912c-1.56672-4.9152-7.0912-9.00096-12.3392-9.00096h-12.68224c-2.11456 0-4.22912-0.8192-5.8624-2.38592-1.6384-1.57184-2.4576-3.6864-2.4576-5.79584v-21.20704c0-2.11456 0.8192-4.15744 2.4576-5.79584 1.6384-1.56672 3.74784-2.38592 5.8624-2.38592h12.61568c5.248 0 10.77248-4.0192 12.3392-9.00096l6.54336-15.74912c2.4576-4.56704 1.4336-11.3152-2.2528-14.92992l-8.99584-8.86272c-1.50016-1.50016-2.4576-3.54816-2.4576-5.79584 0-2.2528 0.95744-4.3008 2.4576-5.79584l15.27296-15.0016c1.50016-1.50016 3.54816-2.38592 5.8624-2.38592 2.31936 0 4.36736 0.88576 5.86752 2.38592l8.99584 8.86272c3.6864 3.61472 10.50112 4.63872 15.06816 2.18112l15.95392-6.4768c4.98176-1.50016 9.07264-7.01952 9.07264-12.20096v-12.47744c0-2.11456 0.8192-4.16256 2.45248-5.79584 1.6384-1.57184 3.74784-2.38592 5.8624-2.38592h21.54496c2.11456 0 4.22912 0.8192 5.86752 2.38592 1.6384 1.56672 2.45248 3.68128 2.45248 5.79584v12.47744c0 5.18144 4.09088 10.63424 9.06752 12.20096l15.95392 6.4768c4.63872 2.4576 11.45344 1.4336 15.13984-2.18112l8.92928-8.8576c1.50016-1.50528 3.54816-2.39104 5.8624-2.39104 2.31936 0 4.36736 0.88576 5.86752 2.38592l15.26784 15.0016c1.50016 1.50016 2.4576 3.54304 2.4576 5.79584 0 2.2528-0.95744 4.29568-2.4576 5.79584l-8.99584 8.8576c-3.6864 3.61984-4.7104 10.368-2.2528 14.93504l6.54848 15.74912c1.56672 4.9152 7.15776 8.9344 12.3392 8.9344h12.68224c2.11456 0 4.22912 0.8192 5.8624 2.38592 1.6384 1.56672 2.4576 3.6864 2.4576 5.79584v21.20192c0 2.11456-0.8192 4.16256-2.4576 5.79584-1.50016 1.70496-3.61472 2.4576-5.72416 2.4576zM391.552 444.25216c-26.3168 0-47.66208 20.99712-47.66208 46.90944 0 25.9072 21.34016 46.90944 47.66208 46.90944 26.3168 0 47.5904-21.00224 47.5904-46.90944 0.06656-25.9072-21.2736-46.90944-47.5904-46.90944z m286.7712 170.112a5.98016 5.98016 0 0 1-4.22912 1.70496h-9.20064c-3.81952 0-7.84384 2.93376-8.9344 6.4768l-4.77184 11.38688c-1.77152 3.2768-1.024 8.18176 1.6384 10.77248l6.54336 6.41024c1.09056 1.09056 1.77152 2.51904 1.77152 4.15744 0 1.6384-0.68096 3.13856-1.77152 4.15744l-11.04384 10.84416a5.92384 5.92384 0 0 1-4.22912 1.70496c-1.6384 0-3.13856-0.68096-4.22912-1.70496l-6.54336-6.41024c-2.6624-2.6624-7.63904-3.34336-10.97728-1.56672l-11.52 4.70528c-3.61472 1.09056-6.61504 5.0432-6.61504 8.79104v9.20576c0 1.50016-0.6144 3.00032-1.77664 4.15744a5.98016 5.98016 0 0 1-4.224 1.70496h-15.616c-1.56672 0-3.072-0.54272-4.224-1.70496-1.16224-1.15712-1.77664-2.65728-1.77664-4.15744v-9.06752c0-3.74784-2.92864-7.7056-6.60992-8.79616l-11.52512-4.70528c-3.33824-1.77152-8.24832-1.024-10.97728 1.57184l-6.54336 6.40512a5.92384 5.92384 0 0 1-4.22912 1.70496c-1.6384 0-3.13856-0.68096-4.22912-1.70496l-11.04384-10.83904a5.82656 5.82656 0 0 1-1.77152-4.15744c0-1.6384 0.68096-3.13856 1.77152-4.16256l6.4768-6.40512c2.6624-2.6624 3.40992-7.5008 1.6384-10.77248l-4.77184-11.38688c-1.09568-3.54816-5.12-6.4768-8.9344-6.4768h-9.20576c-1.56672 0-3.06688-0.6144-4.224-1.70496-1.16224-1.16224-1.77664-2.6624-1.77664-4.16256v-15.33952c0-1.50016 0.6144-3.00032 1.77664-4.15744 1.15712-1.16224 2.72384-1.70496 4.224-1.70496h9.20576c3.81952 0 7.83872-2.93376 8.9344-6.4768l4.77184-11.38688c1.77152-3.2768 1.09056-8.18176-1.6384-10.84416l-6.54336-6.40512a5.82656 5.82656 0 0 1-1.77664-4.16256c0-1.6384 0.68608-3.13344 1.77664-4.15744l11.04384-10.83904c1.09056-1.09056 2.59072-1.70496 4.22912-1.70496 1.6384 0 3.13344 0.68096 4.224 1.70496l6.54848 6.40512c2.6624 2.6624 7.56736 3.34336 10.9056 1.57184l11.59168-4.7104c3.61472-1.08544 6.61504-5.0432 6.61504-8.79104v-9.00096c0-1.50016 0.6144-3.00032 1.77152-4.15744 1.16224-1.16224 2.72896-1.70496 4.22912-1.70496h15.616c1.56672 0 3.06688 0.54272 4.224 1.70496 1.15712 1.15712 1.77152 2.6624 1.77152 4.15744v9.00096c0 3.74784 3.00032 7.7056 6.61504 8.79616l11.59168 4.70528c3.33824 1.77152 8.31488 1.09056 10.97728-1.57184l6.4768-6.40512c1.09056-1.09056 2.59072-1.77664 4.22912-1.77664 1.6384 0 3.13344 0.68608 4.224 1.70496l11.04896 10.91072c1.09056 1.09056 1.77152 2.52416 1.77152 4.15744 0 1.6384-0.68096 3.13856-1.77152 4.16256l-6.48192 6.40512c-2.65728 2.6624-3.4048 7.5008-1.6384 10.84416l4.77696 11.38688c1.15712 3.54304 5.18144 6.4768 8.9344 6.4768h9.20064c1.57184 0 3.072 0.54272 4.22912 1.70496 1.15712 1.15712 1.77152 2.6624 1.77152 4.15744v15.4112c0 1.2288-0.6144 2.79552-1.77152 3.95264z m-87.95648-45.88544c-19.08736 0-34.49856 15.2064-34.49856 34.0224 0 18.74944 15.47776 34.0224 34.49856 34.0224 19.02592 0 34.50368-15.2064 34.50368-34.0224 0-18.82112-15.4112-34.0224-34.50368-34.0224z"  horiz-adv-x="1024" />

    
    <glyph glyph-name="gongchengsheji" unicode="&#58935;" d="M0 896m153.6 0l716.8 0q153.6 0 153.6-153.6l0-716.8q0-153.6-153.6-153.6l-716.8 0q-153.6 0-153.6 153.6l0 716.8q0 153.6 153.6 153.6ZM761.15968 506.88c-10.21952-10.21952-17.536-10.21952-27.79136 0l-101.92384 101.888c-10.21952 10.25536-10.21952 17.6128 0 27.8272l41.69216 41.69216a26.24512 26.24512 0 0 0 37.08416 0l92.63104-92.672a26.20416 26.20416 0 0 0 0-37.08416L761.15968 506.88z m-33.17248-33.21344L432.2816 177.92512a13.1584 13.1584 0 0 0-18.53952 0l-111.17568 111.21152a13.0816 13.0816 0 0 0 0 18.50368l295.74144 295.74144a13.1584 13.1584 0 0 0 18.54464 0l111.17568-111.17056a13.2352 13.2352 0 0 0-0.04096-18.54464z m-375.32672-72.3456l-41.344 40.91392 77.53728 77.99808-20.13184 20.2496L291.03104 462.2848l-37.31456 36.9664 77.72672 78.2336-20.09088 20.20864-77.92128-78.3872-19.62496 19.47136a27.33056 27.33056 0 0 0-8.47872 20.20352c0 7.936 2.82624 14.67392 8.47872 20.2496l98.74944 97.7408a29.07136 29.07136 0 0 0 40.87808 0l138.69568-137.2672-137.92256-136.52992c-0.57856-0.57856-1.00864-1.23392-1.54624-1.85344z m-121.7024-304.53248l-10.45504-3.59936-2.7136 2.67264 3.56352 10.49088 9.6-9.56416z m5.76512 54.31296l39.0144-38.98368-41.02656-14.01344-12.04224 12.04224 14.0544 40.95488z m4.72064 13.77792l42.58304 124.2624 129.7152-129.75616-124.22144-42.58304-48.0768 48.0768z m428.55424 198.77376l138.7008-137.2672a28.416 28.416 0 0 0 0-40.48896l-98.74944-97.69984c-5.65248-5.65248-12.4672-8.43776-20.43904-8.43776-7.97696 0-14.78656 2.78528-20.4032 8.43776l-21.75488 21.44256 71.5776 71.9616-20.1728 20.20864-71.72608-72.1152-37.31456 36.92544 71.76704 72.192-20.12672 20.20864-71.92576-72.3456-39.29088 38.90176c0.69632 0.54272 139.85792 138.07616 139.85792 138.07616z"  horiz-adv-x="1024" />

    
    <glyph glyph-name="gongchengshigongjingxihua" unicode="&#58936;" d="M0 896m153.6 0l716.8 0q153.6 0 153.6-153.6l0-716.8q0-153.6-153.6-153.6l-716.8 0q-153.6 0-153.6 153.6l0 716.8q0 153.6 153.6 153.6ZM459.8784 79.58016l-281.53344 181.3248a21.92896 21.92896 0 0 0-5.54496 31.75936l56.832 74.32192 252.2112-164.48512 301.55776 175.45216 69.4528-78.13632a21.92896 21.92896 0 0 0-5.83168-33.792l-342.272-188.01664a43.86304 43.86304 0 0 0-44.87168 1.57184zM322.8416 493.09184l144.1792 188.92288a20.48 20.48 0 0 0 31.36 1.4336l169.8816-184.87296-186.4192-104.17664-159.0016 98.69312zM300.91264 465.67936l-49.34656-65.792 230.27712-148.03968v98.69312L300.91264 465.67936z m180.93056-115.13856v-98.69312l274.14528 153.51808-60.3136 65.792-213.83168-120.61696z"  horiz-adv-x="1024" />

    
    <glyph glyph-name="xietongbangong" unicode="&#58938;" d="M0 896m153.6 0l716.8 0q153.6 0 153.6-153.6l0-716.8q0-153.6-153.6-153.6l-716.8 0q-153.6 0-153.6 153.6l0 716.8q0 153.6 153.6 153.6ZM613.69856 463.5648c-5.44768 3.94752-15.0528 5.87776-22.87104 8.92416-23.62368 9.28768-34.88768 10.83392-51.44576 32.7936 0 0-8.4736 9.58976 10.6496 33.024 19.12832 23.44448 20.83328 60.76416 15.90272 89.51808C560.9984 656.57856 534.20544 675.84 505.83552 675.84c-28.36992 0-55.37792-19.21536-60.2112-47.9744-4.84352-28.75392-2.59072-65.50016 15.8976-89.50784 15.8976-20.44416 3.33824-39.02464-5.2736-45.58848-9.49248-7.31136-13.37344-8.17664-31.5904-16.0768-7.81312-3.40992-19.89632-7.99744-26.53184-13.08672a28.64128 28.64128 0 0 1-11.56096-20.03456 11.03872 11.03872 0 0 1 11.01824-12.17536h215.77728a11.1104 11.1104 0 0 1 10.99264 12.47232 27.55072 27.55072 0 0 1-10.6496 19.69152z m-181.7088-340.70528c-5.44768 3.95264-15.0528 5.88288-22.87104 8.92416-23.61856 9.2928-34.88768 10.83392-51.44576 32.79872 0 0-8.46848 9.58464 10.6496 33.024 19.12832 23.44448 20.83328 60.75904 15.90272 89.51808-4.92544 28.75392-31.72864 48.01536-60.09856 48.01536-28.3648 0-55.3728-19.21536-60.2112-47.9744-4.8384-28.75392-2.59072-65.50528 15.8976-89.51296 15.8976-20.43904 3.33824-39.01952-5.2736-45.58336-9.49248-7.31648-13.37344-8.17664-31.5904-16.0768-7.81312-3.40992-19.89632-7.99744-26.53184-13.08672a28.64128 28.64128 0 0 1-11.56096-20.03456 11.03872 11.03872 0 0 1 11.01824-12.17536h215.77728a11.1104 11.1104 0 0 1 10.99264 12.47232 27.55072 27.55072 0 0 1-10.58304 19.69152h-0.06656z m374.77376 0c-5.4528 3.95264-15.05792 5.88288-22.87104 8.92416-23.62368 9.2928-34.88768 10.83392-51.44576 32.79872 0 0-8.4736 9.58464 10.6496 33.024 19.12832 23.44448 20.82816 60.75904 15.90272 89.51808-4.93056 28.75392-31.73376 48.01536-60.09856 48.01536-28.36992 0-55.37792-19.21536-60.19072-47.9744-4.8128-28.75392-2.59072-65.50528 15.8976-89.51296 15.78496-20.43904 3.33824-39.01952-5.2736-45.58336-9.49248-7.31648-13.37344-8.17664-31.5904-16.0768-7.81312-3.40992-19.89632-7.99744-26.53184-13.08672a28.64128 28.64128 0 0 1-11.60192-20.03456 11.03872 11.03872 0 0 1 11.01312-12.17536h215.66464a11.1104 11.1104 0 0 1 10.99264 12.47232 27.55072 27.55072 0 0 1-10.58304 19.69152h0.06656zM504.38144 383.69792c15.13984 0 22.71232-7.56736 22.71232-22.71232v-77.22496c0-15.13984-7.57248-22.71232-22.71232-22.71232-15.14496 0-22.71232 7.57248-22.71232 22.71232v77.22496c0 15.14496 7.56736 22.71232 22.71232 22.71232zM587.34592 229.51424c-8.34048-12.63616-18.83136-14.78656-31.46752-6.44096l-64.45056 42.5472c-12.63616 8.33536-14.78144 18.82624-6.44096 31.4624 8.3456 12.64128 18.83136 14.78656 31.46752 6.44608l64.45056-42.5472c12.63616-8.3456 14.78656-18.83136 6.44096-31.46752zM526.02368 297.12384c8.34048-12.63616 6.1952-23.12704-6.44608-31.46752l-64.45056-42.5472c-12.63616-8.3456-23.12192-6.1952-31.46752 6.44096-8.3456 12.64128-6.1952 23.12704 6.44096 31.47264l64.45056 42.5472c12.63616 8.34048 23.12704 6.1952 31.47264-6.4512z"  horiz-adv-x="1024" />

    
    <glyph glyph-name="yunyingzhanwu" unicode="&#58939;" d="M0 896m153.6 0l716.8 0q153.6 0 153.6-153.6l0-716.8q0-153.6-153.6-153.6l-716.8 0q-153.6 0-153.6 153.6l0 716.8q0 153.6 153.6 153.6ZM632.56576 132.7616a27.92448 27.92448 0 0 0 0-55.84896h-234.5472a27.92448 27.92448 0 0 0 0 55.84384h234.5472zM680.77056 691.2c56.80128 0 75.1616-41.35936 78.64832-93.5936l20.55168-311.73632c2.6112-38.7584-14.85312-73.5744-43.70432-94.47424l43.44832-73.4464c7.43936-13.4912 3.05664-30.04416-9.60512-37.43744-13.11232-7.40864-29.2864-3.05152-36.7104 10.01472l-47.38048 80.40448c-4.80256-0.8704-10.05056-1.3056-14.85312-1.3056H348.672c-5.248 0-10.05056 0.44544-14.848 1.3056l-47.39584-80.41472a26.8032 26.8032 0 0 0-36.70016-10.00448c-13.1072 7.40352-17.47968 24.38144-10.05056 37.43744l43.44832 73.4464c-28.8256 20.89472-46.29504 55.7312-43.68384 94.48448L259.9936 597.6064C263.45472 649.84064 296.66304 691.2 353.02912 691.2h327.74144z m-3.20512-349.11744c-5.7344 0-11.46368-1.2288-17.13664-3.63008a44.20608 44.20608 0 0 1-14.29504-9.35936c-4.8128-4.80256-8.3456-9.8816-10.7776-15.14496-2.3808-5.25824-3.584-11.27936-3.584-18.0736 0-5.79072 1.2032-11.57632 3.584-17.3056a35.82976 35.82976 0 0 1 10.72128-14.45376c3.80928-3.85536 8.62208-7.26016 14.29504-10.11712 5.7344-2.86208 11.45856-4.3264 17.2032-4.3264 5.72928 0 11.45856 1.45408 17.13152 4.3264 5.7344 2.8672 10.47552 6.25152 14.29504 10.11712a35.85024 35.85024 0 0 1 10.72128 14.45376 45.02016 45.02016 0 0 1 3.584 17.3056c0 6.72768-1.21344 12.7488-3.584 18.0736a52.29056 52.29056 0 0 1-10.72128 15.14496 43.27936 43.27936 0 0 1-14.29504 9.35936 44.032 44.032 0 0 1-17.14176 3.6352z m-325.48352 0c-5.73952 0-11.4688-1.2288-17.14688-3.63008a44.20608 44.20608 0 0 1-14.29504-9.35936c-4.80256-4.80256-8.3456-9.8816-10.7776-15.14496-2.36544-5.25824-3.584-11.27936-3.584-18.0736 0-5.79072 1.21856-11.57632 3.584-17.3056a35.82976 35.82976 0 0 1 10.72128-14.45376c3.80928-3.85536 8.62208-7.26016 14.29504-10.11712 5.7344-2.86208 11.46368-4.3264 17.2032-4.3264 5.72928 0 11.45856 1.45408 17.13152 4.3264 5.7344 2.8672 10.47552 6.25152 14.29504 10.11712a35.85024 35.85024 0 0 1 10.72128 14.45376 45.02016 45.02016 0 0 1 3.584 17.3056c0 6.72768-1.21344 12.7488-3.584 18.0736a52.29056 52.29056 0 0 1-10.72128 15.14496 43.27936 43.27936 0 0 1-14.29504 9.35936 44.032 44.032 0 0 1-17.13152 3.6352z m332.0832 243.7376h-348.928c-16.03584 0-28.95872-13.09696-28.95872-29.2352v-116.09088c0-16.13824 12.92288-29.24032 28.95872-29.24032h348.93824c16.03584 0 28.95872 13.10208 28.95872 29.2352V556.58496c0 16.14336-12.92288 29.24032-28.95872 29.24032h-0.01024z m-79.52384 71.87456H425.93792a22.33856 22.33856 0 0 1 0-44.67712h178.70336a22.33856 22.33856 0 0 1 0 44.67712z"  horiz-adv-x="1024" />

    
    <glyph glyph-name="Glink1" unicode="&#58941;" d="M0 896m153.6 0l716.8 0q153.6 0 153.6-153.6l0-716.8q0-153.6-153.6-153.6l-716.8 0q-153.6 0-153.6 153.6l0 716.8q0 153.6 153.6 153.6ZM567.79264 655.36l-26.7776-122.88H331.61216a61.44 61.44 0 0 1-60.032-48.3584l-46.5408-213.51936A20.48 20.48 0 0 1 245.06368 245.76h107.6992l20.08064 92.16H306.67264l20.48 102.4h193.792l-22.30272-102.4h-0.03584l-46.86848-215.04H219.63264c-67.8656 0-122.88 55.0144-122.88 122.88a122.88 122.88 0 0 0 2.816 26.1632l51.95264 238.36672C169.984 594.97472 244.9408 655.36 331.6224 655.36h236.17536zM780.20608 655.36l-26.7776-122.88h-0.26624l-62.4896-286.72h213.33504l-30.72-122.88h-335.16032L654.1824 655.36h126.02368z"  horiz-adv-x="1024" />

    
    <glyph glyph-name="zhihuigongdixitong" unicode="&#58942;" d="M0 896m153.6 0l716.8 0q153.6 0 153.6-153.6l0-716.8q0-153.6-153.6-153.6l-716.8 0q-153.6 0-153.6 153.6l0 716.8q0 153.6 153.6 153.6ZM665.6 686.08h20.48v-61.44h-20.48zM808.96 568.32v-20.48h-61.44v20.48zM338.7392 568.32a36.66432 36.66432 0 0 0 36.66944-36.66432v-0.0256a36.66432 36.66432 0 1 0-73.32864 0v0.0256A36.66432 36.66432 0 0 0 338.7392 568.32zM302.08 189.44h71.68v-87.04a35.84 35.84 0 0 0-71.68 0v87.04z m348.16 378.88a35.84 35.84 0 1 0 0-71.68 35.84 35.84 0 0 0 0 71.68z m-35.84-378.88h71.68v-87.04a35.84 35.84 0 0 0-71.68 0v87.04zM296.96 471.04h389.12c33.93024 0 61.44-27.50976 61.44-61.44v-199.68a20.48 20.48 0 0 0-20.48-20.48H256.01024a20.48 20.48 0 0 0-20.48 20.48L235.52 409.6c0 33.408 26.66496 60.5952 59.8784 61.42464L296.96 471.04z m353.28-71.68h-49.96096L460.8 256h50.944L650.24 399.36z m-128 0h-48.77312L332.8 256h49.74592L522.24 399.36z m158.72-51.2l-92.16-87.04h53.02784v0.01024l39.13216 36.95104V348.16zM343.1168 399.36L302.08 358.6048V307.2l92.16 92.14976h-51.1232V399.36zM803.84 537.6c0 79.17568-64.18432 143.36-143.36 143.36a30.72 30.72 0 1 1 0-61.44c44.70272 0 81.0496-35.80928 81.90464-80.3072L742.4 537.6a30.72 30.72 0 0 1 61.44 0zM911.36 537.6c0 138.55744-112.32256 250.88-250.88 250.88a30.72 30.72 0 1 1 0-61.44c104.6272 0 189.44-84.8128 189.44-189.44a30.72 30.72 0 0 1 61.44 0z"  horiz-adv-x="1024" />

    
    <glyph glyph-name="jiadaxiuguanlixitong" unicode="&#58943;" d="M0 896m153.6 0l716.8 0q153.6 0 153.6-153.6l0-716.8q0-153.6-153.6-153.6l-716.8 0q-153.6 0-153.6 153.6l0 716.8q0 153.6 153.6 153.6ZM571.43296 680.96a159.42144 159.42144 0 0 1-16.88576-17.664c-24.97024-29.952-37.78048-65.01376-39.59296-100.096H332.8a20.48 20.48 0 0 1-20.48-20.48v-102.4a20.48 20.48 0 0 1 20.48-20.48l247.3984-0.00512c3.2256-2.54976 6.56384-5.00736 10.0096-7.35744v-253.65504l0.14336-2.92864 0.06656-0.99328H390.76864l-62.16192-61.96736A20.1216 20.1216 0 0 0 314.368 87.04a20.1216 20.1216 0 0 0-14.2336 5.89312 19.8656 19.8656 0 0 0-5.9392 14.14656 19.8656 19.8656 0 0 0 5.9392 14.15168l34.88768 34.66752c-39.18336 4.54656-68.74112 37.51936-68.78208 76.71808V603.24864c0.11264 42.87488 35.06176 77.60384 78.208 77.71136z m69.96992-430.08h104.4992l0.00512-33.8944c-6.5536-31.49312-32.44032-56.31488-65.47456-60.86656l-1.69472-0.22016 34.8928-34.66752c1.11104-1.09568 2.07872-2.30912 2.89792-3.6096-4.7104-2.14528-9.8816-3.64544-15.4112-4.42368-29.85472-4.36736-58.41408 17.4592-59.70944 46.76096L641.40288 250.88zM381.44 322.56a43.52 43.52 0 1 1 0-87.04 43.76064 43.76064 0 0 1 43.52 43.52 43.52 43.52 0 0 1-43.52 43.52zM624.64 656.80384V563.2h-58.34752c1.792 23.71072 10.8032 47.27296 27.72992 67.4816 8.61696 10.57792 18.9952 19.11808 30.6176 26.12224zM801.72544 488.53504c-12.33408-18.70848-29.2096-33.04448-49.98144-43.02336-3.8912-1.8688-5.8368-4.36224-5.8368-8.7296v-272.4608c0-26.80832-18.176-47.38048-44.78976-51.1232-29.85472-4.36736-58.41408 17.4592-59.70944 46.76096V436.78208c0 4.36736-1.30048 6.23616-5.1968 8.10496-72.69376 34.9184-92.81536 125.32224-42.1888 185.79968 11.68384 14.336 26.61376 24.9344 43.48928 33.04448 1.29536 0.61952 1.9456 0.61952 5.19168 1.8688-0.65024-2.49344-1.29536-4.36224-1.29536-6.23616v-96.64c0-4.36224 1.29536-6.8608 4.54144-9.34912 14.92992-11.22304 29.85472-22.44608 44.1344-33.66912 2.59584-1.8688 4.54144-2.49344 7.1424 0 14.92992 11.84768 30.50496 23.07072 45.43488 34.9184 2.59584 1.8688 3.8912 4.36224 3.8912 7.4752V659.9936c0 1.8688-0.64512 3.11808-0.64512 4.98688 0.64512 0 0.64512 0.62464 1.29536 0.62464 4.54144-2.49344 9.73824-4.98688 14.27968-7.48032 61.00992-36.16256 78.5408-111.60064 40.2432-169.58464z"  horiz-adv-x="1024" />

    
    <glyph glyph-name="zichanyijiaoguanlixitong" unicode="&#58944;" d="M0 896m153.6 0l716.8 0q153.6 0 153.6-153.6l0-716.8q0-153.6-153.6-153.6l-716.8 0q-153.6 0-153.6 153.6l0 716.8q0 153.6 153.6 153.6ZM699.33056 417.3824l1.21344-2.92352A166.44096 166.44096 0 0 1 691.2 414.72c-89.57952 0-162.37056-71.89504-163.81952-161.1264L527.36 250.88l0.02048-2.7136c0.76288-46.94016 21.26848-89.088 53.57568-118.48704-27.88864-4.88448-59.392-7.14752-94.32064-6.7584-174.5408 1.95072-265.68192 66.2528-242.41152 190.97088 23.2704 124.71296 89.20576 257.21856 242.41152 259.16928 110.3104 1.40288 176.384-68.9152 212.69504-155.68384z m-228.20864-4.11136L418.75968 360.6528c-7.7568-7.79776-7.7568-19.48672 0-25.33376l52.36224-52.61312c7.7568-7.79264 19.39456-7.79264 25.21088 0l52.36224 52.61312c7.7568 7.79264 7.7568 19.48672 0 25.33376L496.3328 413.27104c-7.7568 7.79264-19.39456 7.79264-25.21088 0zM566.14912 686.08c19.38944 0 32.96768-15.5904 32.96768-33.1264 0-3.89632 0-9.74336-1.94048-13.63968l-9.69728-23.38304c-5.81632-15.5904-19.39456-23.38816-34.90816-23.38816H418.7648c-15.5136 0-29.08672 9.74336-34.90816 23.38816L372.224 639.31392c-7.7568 17.536 1.93536 37.02272 19.38944 44.81536 5.33504 1.792 9.0368 1.93536 12.60544 1.9456L566.14912 686.08zM691.2 384c73.5232 0 133.12-59.5968 133.12-133.12s-59.5968-133.12-133.12-133.12-133.12 59.5968-133.12 133.12 59.5968 133.12 133.12 133.12z m71.68-143.36h-143.36c-13.68576 0-20.53632-16.54272-10.85952-26.21952l51.2-51.2a15.36 15.36 0 1 1 21.71904 21.71904L656.60416 209.92H762.88a15.36 15.36 0 0 1 0 30.72z m-62.09024 97.89952a15.36 15.36 0 0 1 0-21.71904L725.76 291.84h-106.27584a15.36 15.36 0 0 1 0-30.72h143.36c13.68576 0 20.53632 16.54272 10.85952 26.21952l-51.2 51.2a15.36 15.36 0 0 1-21.71904 0z"  horiz-adv-x="1024" />

    
    <glyph glyph-name="gongchenganquanfengxianyujingxitong" unicode="&#58945;" d="M0 896m153.6 0l716.8 0q153.6 0 153.6-153.6l0-716.8q0-153.6-153.6-153.6l-716.8 0q-153.6 0-153.6 153.6l0 716.8q0 153.6 153.6 153.6ZM743.31648 640.55296l-164.82816 61.7472a147.52768 147.52768 0 0 1-103.54688 0L312.74496 641.50528C278.8864 628.84864 256 592.93696 256 552.6016v-226.44736c0-174.71488 270.71488-273.8432 270.71488-273.8432s270.71488 99.20512 270.71488 273.8432V555.6224c0 38.56384-21.79072 72.8576-54.1184 84.93056zM435.2 411.4944a10.24 10.24 0 0 0-7.74656 16.93696l127.744 147.70176a10.24 10.24 0 0 0 17.92-7.80288l-16.95232-156.83584h61.0304a10.24 10.24 0 0 0 7.6544-17.04448L497.54624 251.2384a10.24 10.24 0 0 0-17.83296 7.936L496.64 411.48416H435.2z"  horiz-adv-x="1024" />

    
    <glyph glyph-name="yunyingzhanwu1" unicode="&#58946;" d="M0 896m153.6 0l716.8 0q153.6 0 153.6-153.6l0-716.8q0-153.6-153.6-153.6l-716.8 0q-153.6 0-153.6 153.6l0 716.8q0 153.6 153.6 153.6ZM728.60672 640.98304l-166.77888 61.36832a151.79264 151.79264 0 0 1-104.77568 0l-164.11648-60.416C258.68288 629.3504 235.52 593.65376 235.52 553.5744v-225.0752C235.52 154.84928 509.44 56.32 509.44 56.32s273.92 98.60096 273.92 272.1792V556.5696c0 38.33344-22.05184 72.41728-54.75328 84.41344z m-86.9376-405.81632c-40.47872-36.9408-90.5728-61.80864-115.95264-72.92928-10.35776-4.608-22.1952-4.608-32.55296 0-25.37984 11.12064-75.47392 35.9936-115.94752 72.92928-18.1248 16.45568-17.38752 45.568 1.84832 60.85632 27.15648 21.65248 61.11744 34.52416 98.11456 34.52416h64.44544c36.99712 0 70.9632-12.87168 98.11456-34.52416 19.16416-15.43168 19.97824-44.32896 1.92512-60.85632zM512 402.05312c-33.90976 0.03584-61.39904 27.83232-61.46048 62.14656 0 1.80736 0.40448 3.6864 0.54784 5.5296 17.95072-3.50208 38.73792-5.5296 60.91264-5.5296 22.21056 0 42.96192 2.02752 60.91264 5.5296 0.14336-1.8432 0.512-3.72224 0.512-5.5296-0.06144-34.29888-27.52512-62.09024-61.42464-62.14656z m-35.84 160.28672h71.68v-34.1248l-35.84-17.0752-35.84 17.0752v34.1248zM512 609.28l-143.38048-41.4464L389.12 526.3872v-20.736c0-8.77056 8.15616-16.91648 21.95456-23.61856a104.6272 104.6272 0 0 1 22.55872-84.45952c19.456-23.40864 48.13824-36.93568 78.36672-36.9664 30.22848 0.03072 58.9056 13.55776 78.36672 36.9664a104.6272 104.6272 0 0 1 22.55872 84.45952c13.83424 6.7072 21.95456 14.848 21.95456 23.61344V526.3872l20.50048 41.4464L512 609.28z"  horiz-adv-x="1024" />

    
    <glyph glyph-name="hetongguanlixitong" unicode="&#58947;" d="M0 896m153.6 0l716.8 0q153.6 0 153.6-153.6l0-716.8q0-153.6-153.6-153.6l-716.8 0q-153.6 0-153.6 153.6l0 716.8q0 153.6 153.6 153.6ZM762.88 691.2a20.48 20.48 0 0 0 20.48-20.48v-532.48c0-33.93024-27.50976-61.44-61.44-61.44H302.08c-33.93024 0-61.44 27.50976-61.44 61.44V670.72a20.48 20.48 0 0 0 20.48 20.48h501.76z m-166.39488-302.6688a7.0656 7.0656 0 0 1-6.5536-4.56192l-23.22944-65.01888-2.44736-7.05024h-4.7104l-9.92256-0.04608-11.68384-0.2304-11.67872-0.18432-39.57248-0.4608c-2.9952-0.1024-5.61152-2.048-6.5536-4.88448l-0.18432-0.65024a6.8096 6.8096 0 0 1 2.58048-6.99904l61.3632-46.44864-22.71232-72.89856c-0.8704-2.816 0.128-5.87776 2.49344-7.64928l0.64512-0.3328c0.43008-0.22016 0.86016-0.4352 1.29024-0.5888 0.2304-0.13824 0.4608-0.13824 0.65024-0.13824 0.4608-0.04608 0.9216-0.04608 1.3824-0.18432 0.4608 0 0.82944 0.13824 1.29536 0.13824l0.73728 0.04608c0.69632 0.16896 1.35168 0.46592 1.94048 0.87552l63.81056 43.26912 63.25248-44.0064c1.152-0.80896 2.51904-1.25952 3.92704-1.29024l0.73728 0.03072c1.2288 0.11776 2.4064 0.54784 3.41504 1.25952l0.57344 0.4608c1.98144 1.792 2.7904 4.58752 2.01216 7.18848l-21.92896 73.31328 61.91616 45.71136-0.04608-0.04608c2.31424 1.72544 3.328 4.68992 2.53952 7.46496l-0.23552 0.63488a6.92736 6.92736 0 0 1-6.22592 4.20352l-39.5264 1.05984-11.67872 0.32256-11.5456 0.32256-9.97376 0.2304-4.61824 0.09216-2.3552 7.00416-22.5792 65.4336c-1.05984 2.7648-3.6864 4.608-6.59968 4.608zM452.24448 421.4784H359.90016a23.0656 23.0656 0 0 1-23.0912-23.04c0-12.7232 10.3424-23.04 23.0912-23.04h92.43648a23.06048 23.06048 0 0 1 23.04 23.08608 23.0656 23.0656 0 0 1-23.13216 22.99392z m184.2688 93.0816H359.95136a23.0656 23.0656 0 0 1-23.0912-23.04c0-12.7232 10.3424-23.04 23.0912-23.04h276.57216a23.0656 23.0656 0 0 1 23.08608 23.04c0 12.7232-10.3424 23.04-23.0912 23.04z m0 92.06784H359.95136a23.0656 23.0656 0 0 1-23.0912-23.04c0-12.7232 10.3424-23.04 23.0912-23.04h276.57216a23.0656 23.0656 0 0 1 23.08608 23.04c0 12.7232-10.3424 23.04-23.0912 23.04z"  horiz-adv-x="1024" />

    
    <glyph glyph-name="huidaodingbu" unicode="&#58923;" d="M857.4 281c-6.4 0-12.8 2.4-17.7 7.3L526 602c-3.8 3.8-8.7 5.8-14 5.8-5.3 0-10.3-2.1-14-5.8L184.3 288.4c-9.8-9.8-25.6-9.8-35.4 0-9.8 9.8-9.8 25.6 0 35.4l313.7 313.7c27.2 27.2 71.6 27.2 98.8 0l313.7-313.7c9.8-9.8 9.8-25.6 0-35.4-4.9-4.9-11.3-7.4-17.7-7.4zM512-39.2c-13.8 0-25 11.2-25 25v647c0 13.8 11.2 25 25 25s25-11.2 25-25v-647.1c0-13.7-11.2-24.9-25-24.9zM781.9 698H242.1c-13.8 0-25 11.2-25 25s11.2 25 25 25H782c13.8 0 25-11.2 25-25s-11.3-25-25.1-25z"  horiz-adv-x="1024" />

    
    <glyph glyph-name="dingwei1" unicode="&#58921;" d="M648.7 128.9c-66.8-77.3-132.4-131.1-149.6-131.1-43.9 0-313.6 246.3-313.6 462.6 0 173.2 140.4 313.6 313.6 313.6s313.6-140.4 313.6-313.6c0-80.7-45.3-172-101.8-252.1l-62.2-79.4zM499.1-22.2c-9.5 0-21.2 4.4-36.6 14-12.6 7.8-27.7 19-43.8 32.6-35.7 30.1-74.2 69.4-108.3 110.9-41.9 50.9-75.5 102.3-100 152.9-29.7 61.3-44.8 119.3-44.8 172.3 0 45 8.8 88.7 26.2 129.9 16.8 39.7 40.9 75.4 71.5 106s66.3 54.7 106 71.5c41.1 17.4 84.8 26.2 129.9 26.2 45 0 88.7-8.8 129.9-26.2 39.7-16.8 75.4-40.9 106-71.5s54.7-66.3 71.5-106c17.4-41.1 26.2-84.8 26.2-129.9 0-94.2-57.3-195.4-105.4-263.6l-0.6-0.8-62.5-79.8-0.3-0.4c-31.5-36.5-65.4-70.8-95.5-96.6-48.3-41.5-63.1-41.5-69.4-41.5z m-1.8 39.8z m2.5 0.1z m-0.7 736.3c-78.4 0-152.1-30.5-207.6-86s-86-129.2-86-207.6c0-115.4 82.8-234.5 132.1-295.3 31.9-39.3 68.2-77 102.1-106.2 34.2-29.4 52.9-39.1 58.9-40.9 13.4 5.1 66.5 44.7 134.6 123.5l61.6 78.7c44.7 63.5 97.8 156.6 97.8 240.2 0 78.4-30.5 152.1-86 207.6-55.4 55.5-129.1 86-207.5 86zM499.1 477m-130.4 0a130.4 130.4 0 1 1 260.8 0 130.4 130.4 0 1 1-260.8 0ZM499.1 326.6c-82.9 0-150.4 67.5-150.4 150.4s67.5 150.4 150.4 150.4S649.5 559.9 649.5 477 582 326.6 499.1 326.6z m0 260.7c-60.9 0-110.4-49.5-110.4-110.4s49.5-110.4 110.4-110.4c60.9 0 110.4 49.5 110.4 110.4S560 587.3 499.1 587.3z"  horiz-adv-x="1024" />

    
    <glyph glyph-name="dingwei2" unicode="&#58922;" d="M860.4 472.5c0-185.9-345.9-536.7-345.9-536.7S187 286.6 187 472.5 337.8 809.2 523.7 809.2s336.7-150.7 336.7-336.7zM523.7 516.9m-211.1 0a211.1 211.1 0 1 1 422.2 0 211.1 211.1 0 1 1-422.2 0Z"  horiz-adv-x="1024" />

    
    <glyph glyph-name="icon-1" unicode="&#58920;" d="M512-108.032A492.032 492.032 0 1 0 1004.032 384 492.544 492.544 0 0 0 512-108.032z m0 977.664A485.632 485.632 0 1 1 997.632 384 486.4 486.4 0 0 1 512 869.632zM512 384m-364.8 0a364.8 364.8 0 1 1 729.6 0 364.8 364.8 0 1 1-729.6 0ZM552.229061 312.760376l8.291174 169.525368 271.291727-13.268379-8.291173-169.525368-271.291728 13.268379ZM332.371556 88.367276l-36.649095 165.72398 265.208362 58.649608 36.649095-165.723981-265.208362-58.649607ZM497.368129 378.757635l131.69812 107.066331 171.338426-210.75672-131.69812-107.066331-171.338426 210.75672ZM507.258018 331.869967l169.504603 8.705378 13.931229-271.258498-169.504603-8.705377-13.931229 271.258497ZM240.149904 547.470558l141.419217 93.852006 150.191522-226.313407-141.419217-93.852006-150.191522 226.313407ZM297.348592 430.375771l236.488322 12.145512 7.589303-147.773244-236.488322-12.145511-7.589303 147.773243ZM643.072 189.824l-82.048 142.208a46.208 46.208 0 0 1-38.4-45.44v-179.2a46.336 46.336 0 0 1 46.208-46.208h76.8a46.336 46.336 0 0 1 46.208 46.208v60.544a46.208 46.208 0 0 0-48.768 21.888zM645.888 332.8h-76.8a45.568 45.568 0 0 1-7.552-0.768l82.048-142.208a46.208 46.208 0 0 1 49.024-22.016v118.784A46.336 46.336 0 0 1 645.888 332.8zM506.914476 384.745485l131.69812 107.066331 171.338427-210.75672-131.69812-107.066331-171.338427 210.75672ZM198.916609 240.630992l32.792636 166.529988 266.498216-52.47811-32.792636-166.529988-266.498216 52.47811ZM346.624 295.04c9.472-1.152 126.464 9.472 132.352 10.624A49.536 49.536 0 0 1 524.8 345.6a268.8 268.8 0 0 1-5.888 80.512v-1.536l-0.768 3.84a24.832 24.832 0 0 1-8.96 14.336 6.912 6.912 0 0 0-2.56-1.792A246.784 246.784 0 0 0 419.968 409.6c-35.328-3.84-43.264 19.2-44.928 28.16-28.8-3.2-54.272-6.144-64-7.424-24.832-3.584-27.136-38.4-27.136-38.4a249.216 249.216 0 0 1 5.888-54.4 48.128 48.128 0 0 1 11.904-24.704 72.192 72.192 0 0 1 44.928-17.792zM520.448 420.736a29.568 29.568 0 0 1-1.152 3.584 265.088 265.088 0 0 0 5.504-79.36 49.536 49.536 0 0 0-45.568-39.552c-5.888-1.152-122.88-11.776-132.352-10.624a71.808 71.808 0 0 0-44.8 19.072 45.952 45.952 0 0 0-9.472 14.976c8.192-36.864 46.976-40.32 56.192-41.472s126.464 9.472 132.352 10.624a49.536 49.536 0 0 1 45.568 39.552c5.504 30.208-6.272 83.2-6.272 83.2zM347.008 294.4c9.472-1.152 126.464 9.472 132.352 10.624A49.536 49.536 0 0 1 524.8 344.96a265.088 265.088 0 0 1-5.632 79.488v1.536A268.8 268.8 0 0 0 524.8 345.6a49.536 49.536 0 0 0-45.568-39.552c-5.888-1.152-122.88-11.776-132.352-10.624a72.192 72.192 0 0 0-44.416 18.688A71.808 71.808 0 0 1 347.008 294.4zM419.968 409.6a246.784 246.784 0 0 1 87.04 31.104 6.912 6.912 0 0 1 2.56 1.792 43.008 43.008 0 0 1-21.888 6.656c-3.072 0-62.976-5.76-112.768-11.264 1.792-8.832 9.088-31.872 45.056-28.288zM502.306256 581.866103l131.69812 107.066331 171.338427-210.75672-131.69812-107.06633-171.338427 210.756719ZM770.304 453.376l-60.032-48.768a46.336 46.336 0 0 0-65.024 6.656L532.224 550.4a46.208 46.208 0 0 0-8.192 42.752 46.208 46.208 0 0 1 3.456-52.992L640 401.024a46.336 46.336 0 0 1 65.024-6.656l60.032 48.768A45.824 45.824 0 0 1 780.8 465.28a45.44 45.44 0 0 0-10.496-11.904zM485.376 530.048a230.4 230.4 0 0 1-16.64 34.304 212.352 212.352 0 0 0 13.952-29.312c11.776-33.152 28.416-61.44-21.248-98.048a96.128 96.128 0 0 0-70.912-21.248c-39.296 3.072-77.952 51.2-101.12 91.136 22.784-41.088 62.848-92.8 103.808-96a96.128 96.128 0 0 1 70.912 21.248c49.664 36.352 33.024 64.768 21.248 97.92zM461.44 434.432a96.128 96.128 0 0 0-70.912-21.248c-44.928 3.584-88.832 65.28-109.952 107.52a69.248 69.248 0 0 0 21.248 75.648c20.992 14.336 65.408 51.2 98.048 46.08 23.68-3.84 70.912-76.8 82.688-109.952s28.544-61.312-21.12-98.048zM460.8 445.056a109.568 109.568 0 0 0-80.768-24.192 71.424 71.424 0 0 0-22.912 6.144 72.832 72.832 0 0 1 33.664-12.8A96.128 96.128 0 0 1 461.696 435.2c24.192 17.792 32.512 33.664 33.536 49.024A95.744 95.744 0 0 0 460.8 445.056z"  horiz-adv-x="1024" />

    
    <glyph glyph-name="tubiaozhizuomoban--" unicode="&#58919;" d="M228 486V654.9c0 26.9 21.8 48.7 48.7 48.7h503.1c26.9 0 48.7-21.8 48.7-48.7V104c0-26.9-21.8-48.7-48.7-48.7h-504c-26.9 0-48.7 21.8-48.7 48.7V358.7M830.1 416.3V651.4L820 670.2H228.3c-0.1 0 0.6 0.4 0.6-1.1V500.2l-1-89.4c6.1-1.1 12.3-3.3 18.8-3.3 48.8 0 88.4 36.4 91 85.9h0.5c2.6-49.5 42.4-86.5 91.2-86.5s88.6 36.9 91.2 86.5h0.5c2.6-49.5 42.4-86.5 91.2-86.5s88.6 36.9 91.2 86.5h0.5c2.6-49.5 43.2-84.8 92-84.8 11.7-0.1 19.9 3.7 34.1 7.7zM830.1 90.1c0 19.5-15.8 35.4-35.4 35.4H264.2c-19.5 0-35.4-15.8-35.4-35.4 0-19.5 15.8-35.4 35.4-35.4h530.5c19.5 0 35.4 15.9 35.4 35.4zM518.7 55.3H320.6V329.8c0 16.4 13.3 29.7 29.7 29.7h138.6c16.4 0 29.7-13.3 29.7-29.7v-274.5zM214.5 295.8c-7.8 0-14.1 6.3-14.1 14.1v49.5c0 7.8 6.3 14.1 14.1 14.1s14.1-6.3 14.1-14.1V310c0-7.8-6.3-14.2-14.1-14.2zM779.8 41.2H261.7c-34.4 0-61.3 28-61.3 63.7V267.6c0 7.8 6.3 14.1 14.1 14.1s14.1-6.3 14.1-14.1v-162.7c0-19.8 14.5-35.4 33-35.4h518.1c17.9 0 36 8.8 36 28.3v290c0 7.8 6.3 14.1 14.1 14.1s14.1-6.3 14.1-14.1v-290c0.1-32.8-26.9-56.6-64.1-56.6zM213.9 483.3c-7.8 0-14.1 6.3-14.1 14.1V649.8c0 35 28.2 63.4 62.8 63.4h517.2c36.8 0 64.3-37.3 64.3-70.7 0-7.8-6.3-14.1-14.1-14.1s-14.1 6.3-14.1 14.1c0 21-18.2 42.4-36 42.4H262.5c-19 0-34.5-15.8-34.5-35.1v-152.3c0-7.8-6.3-14.2-14.1-14.2zM214.5 387.8c-7.8 0-14.1 6.3-14.1 14.1v63.7c0 7.8 6.3 14.1 14.1 14.1s14.1-6.3 14.1-14.1V402c0-7.9-6.3-14.2-14.1-14.2zM886.3 543.3c0.1 1.4 0.2 2.2 0.2 3.5 0 1.7-0.2 3.1-0.3 4.8l-2.3 1.3L820 720.3H221.5s-0.1 0-0.1-0.1l-65.8-175.7c-0.5-1.1-0.7-2.2-0.7-3.3 0-50.5 40.9-85.4 91.4-85.4 48.8 0 88.6 38 91.2 87.5h0.5c2.6-49.5 42.4-86.5 91.2-86.5s88.6 36.9 91.2 86.5h0.5c2.6-49.5 42.4-86.5 91.2-86.5 48.8 0 88.6 36.9 91.2 86.5h0.5c2.6-49.5 42.4-86.5 91.2-86.5s88.6 36.9 91.2 86.5h0.3-0.2zM886.5 543.4h-0.2v-0.2l0.2 0.2zM886.2 551.6l-2.3 0.9L820 719.7H674.3L702.6 535c0.3 2.6 0.6 7.8 0.8 7.8h0.5c2.6-49.5 42.4-86.5 91.2-86.5 48.8 0 88.6 36.9 91.2 86.5h0.1c0.1 0 0.2 2.4 0.2 3.7-0.1 1.7-0.3 3.4-0.4 5.1zM518.8 719.7H363l-28.3-195.5c1.5 6 2.5 11.6 2.9 18.6h0.5c2.6-49.5 42.5-86.2 91.3-86.2 44.2 0 82.4 30.6 89.5 73.1v190zM886.3 543.3l0.2 0.2h-0.2v-0.2zM886.2 551.6l-2.3 0.9L820 719.7H221.5l-0.1 0.3-65.8-175.6c-0.5-1.1-0.7-2.1-0.7-3.2 0-15.4 3.8-29.3 10.6-41.2l37.2 99.3c5.5 14.8 15.4 27.2 28.4 36.2 12.9 9 28.3 13.5 44.1 13.5h507.4c22.6 0 42.8-13.6 50.8-34.7l42-110.2c6.2 11.6 10.1 24.6 10.9 38.8h0.1c0.1 0 0.2 2.4 0.2 3.7-0.1 1.6-0.3 3.3-0.4 5zM800.1 444.4c-41.3 0-77.4 21.1-96.4 52.7-18.6-31.6-54.1-52.7-94.6-52.7-38.6 0-70.9 19.4-88.4 50-17.5-30.6-49.8-50-88.4-50-40.5 0-75.9 21.1-94.6 52.7-19-31.6-55.1-52.7-96.4-52.7-59.2 0-100.5 39.8-100.5 96.9 0 2.9 0.6 5.8 1.8 8.7L191 679.3c6.1 16.3 16.9 30.1 31.2 40 14.3 9.9 31 15.1 48.4 15.1h511.7c28.4 0 54.2-17.8 64.3-44.3l48.8-127.8c2.9-2.5 4.7-6.1 4.9-10l0.1-1.4c0.1-1.4 0.2-2.7 0.2-4.2 0-1.1 0-1.9-0.1-2.8 0.1-1.2 0-2.5-0.3-3.6-4-56.6-44.9-95.9-100.1-95.9z m-96.7 113.2c7.5 0 14.2-5.9 14.6-13.4 2.1-40.1 38.2-71.5 82.2-71.5 40.8 0 69.7 28.7 72 71.5 0 0.3 0 0.6 0.1 0.9-0.6 0.9-1.1 1.8-1.5 2.8l-50.5 132.2c-6 15.6-21.2 26.1-37.9 26.1H270.6c-11.6 0-22.8-3.5-32.3-10.1-9.5-6.6-16.7-15.9-20.8-26.7L169.1 540c0.6-41 28.8-67.4 72.2-67.4 44 0 80 31.4 82.2 71.5 0.4 7.5 6.6 13.4 14.1 13.4s14.2-5.9 14.6-13.4c2.1-40.1 37.3-71.5 80.1-71.5 41.4 0 71.8 29.4 74 71.5 0.4 7.5 6.6 13.4 14.1 13.4s14.2-5.9 14.6-13.4c2.2-42.1 32.7-71.5 74-71.5 42.8 0 78 31.4 80.1 71.5 0.5 7.6 6.7 13.5 14.3 13.5zM320.6 41.2c-7.8 0-14.1 6.3-14.1 14.1V329.8c0 24.2 19.7 43.9 43.9 43.9H489c24.2 0 43.9-19.7 43.9-43.9v-203.7c0-7.8-6.3-14.1-14.1-14.1s-14.1 6.3-14.1 14.1V329.8c0 8.6-7 15.6-15.6 15.6H350.3c-8.6 0-15.6-7-15.6-15.6v-274.5c0-7.8-6.3-14.1-14.1-14.1zM717.5 211H614.9c-14 0-25.5 11.5-25.5 25.5V336c0 13 10.5 23.5 23.5 23.5h108.6c13 0 23.5-10.5 23.5-23.5v-97.5c0-15.1-12.4-27.5-27.5-27.5zM717.5 196.8H614.9c-21.9 0-39.7 17.8-39.7 39.7V336c0 20.8 16.9 37.6 37.6 37.6h108.6c20.8 0 37.6-16.9 37.6-37.6v-97.5c0.2-23-18.5-41.7-41.5-41.7zM612.9 345.4c-5.2 0-9.3-4.2-9.3-9.3v-99.5c0-6.3 5.1-11.4 11.4-11.4h102.6c7.4 0 13.4 6 13.4 13.4V336c0 5.2-4.2 9.3-9.3 9.3H612.9zM370.1 161.4c-7.8 0-14.1 6.3-14.1 14.1v56.6c0 7.8 6.3 14.1 14.1 14.1s14.1-6.3 14.1-14.1v-56.6c0.1-7.7-6.3-14.1-14.1-14.1zM886.5 543.4h-0.2v-0.2l0.2 0.2zM155.7 544.2c-0.5-1.1-0.7-2.1-0.7-3.1 0-50.5 40.9-85.6 91.4-85.6 48.8 0 88.6 37.8 91.2 87.3h0.5c2.6-49.5 42.4-86.5 91.2-86.5s88.6 36.9 91.2 86.5h0.5c2.6-49.5 42.4-86.5 91.2-86.5s88.6 36.9 91.2 86.5h0.5c2.6-49.5 42.4-86.5 91.2-86.5 48.8 0 88.6 36.9 91.2 86.5h0.1c0.1 0 0.2 2.4 0.2 3.7 0 1.7-0.2 3.3-0.3 5l-2.3 1-4.5 11.5H163.2l-7.5-19.8z"  horiz-adv-x="1024" />

    
    <glyph glyph-name="icon-test6" unicode="&#58976;" d="M640 384h-32v64h32a96 96 0 1 1-96 96v-320c0-88.224-71.776-160-160-160s-160 71.776-160 160 71.776 160 160 160h32v-64h-32a96 96 0 1 1 96-96V544c0 88.224 71.776 160 160 160s160-71.776 160-160-71.776-160-160-160M512 832C264.576 832 64 631.424 64 384s200.576-448 448-448 448 200.576 448 448S759.424 832 512 832"  horiz-adv-x="1024" />

    
    <glyph glyph-name="icon-test7" unicode="&#58977;" d="M368.832 521.184a26.656 26.656 0 0 1 0.128-53.28 26.656 26.656 0 0 1-0.128 53.28M502.08 467.904a26.592 26.592 0 1 1-0.288 53.248 26.656 26.656 0 0 1 0.32-53.248M566.4 382.112a22.24 22.24 0 0 1-22.08-22.336 22.048 22.048 0 0 1 22.08-22.016 21.984 21.984 0 0 1 22.08 22.272 22.144 22.144 0 0 1-22.08 22.08M788.16 307.52c-1.76-25.728-11.36-48.384-27.2-68.48a150.112 150.112 0 0 0-28.576-27.68c-5.952-4.448-7.104-7.68-5.216-14.848 2.496-9.44 4.992-18.848 7.584-28.288 0.736-2.72 0.64-5.216-1.792-7.04-2.336-1.888-4.736-1.28-7.072 0.096-11.648 6.752-23.36 13.44-34.912 20.224a19.712 19.712 0 0 1-16.256 2.08c-44.992-12.128-89.088-9.6-131.744 9.408-31.04 13.824-56.096 34.784-72.736 64.864a116.704 116.704 0 0 0-14.752 63.136c1.344 27.584 11.52 51.84 29.024 72.992 21.824 26.368 49.984 43.136 82.528 52.8a196.192 196.192 0 0 0 58.72 7.68 183.744 183.744 0 0 0 81.6-19.712c29.92-15.04 53.76-36.576 68.8-66.88 9.44-19.04 13.44-39.264 12-60.384m-344.224-33.152a237.408 237.408 0 0 0-73.472 8.96 20.8 20.8 0 0 1-16.8-2.208l-41.952-24.288-1.696-0.96c-2.72-1.6-5.44-1.792-8.032 0.32-2.592 1.984-2.912 4.8-2.144 7.744 0.96 3.744 2.048 7.424 3.04 11.136 2.176 8.064 4.352 16.128 6.464 24.224 1.92 7.392 0.288 11.968-5.856 16.544a182.176 182.176 0 0 0-31.264 29.12c-18.432 21.888-30.72 46.656-35.008 75.072a139.52 139.52 0 0 0 14.72 87.264c16.512 31.68 41.44 55.136 72.32 72.544a219.488 219.488 0 0 0 80.384 26.24c10.24 1.28 20.576 2.016 30.912 1.952a226.464 226.464 0 0 0 93.92-19.648c35.744-16.128 65.088-39.776 85.408-73.792 8.256-13.856 14.048-28.672 17.28-44.48 0.64-2.784 0.608-2.784-2.24-2.688a211.072 211.072 0 0 1-78.4-11.648c-34.24-12.128-63.264-31.584-85.056-61.024a131.84 131.84 0 0 1-26.272-68.736 124.32 124.32 0 0 1 5.568-49.056c0.64-2.016 0.448-2.528-1.824-2.56M512 832C264.576 832 64 631.424 64 384c0-247.456 200.576-448 448-448s448 200.544 448 448c0 247.424-200.576 448-448 448M677.408 382.112a22.304 22.304 0 0 1-22.144-22.08 22.112 22.112 0 1 1 44.256-0.256 22.304 22.304 0 0 1-22.112 22.336"  horiz-adv-x="1024" />

    
    <glyph glyph-name="icon-test8" unicode="&#58985;" d="M716.48 332.32a22.112 22.112 0 0 1-2.4-10.432c0-8 2.496-13.792 7.84-18.208 5.696-4.672 14.592-7.04 26.464-7.04 12 0 20.928 2.368 26.56 7.04 5.216 4.352 7.744 10.304 7.744 18.208a22.112 22.112 0 0 1-2.4 10.432 30.656 30.656 0 0 1-7.168 8.96 52.16 52.16 0 0 1-11.616 7.584 88.928 88.928 0 0 1-13.12 5.12 94.592 94.592 0 0 1-13.408-5.12 48 48 0 0 1-11.424-7.488 31.744 31.744 0 0 1-7.104-9.056z m57.088 76.768a18.304 18.304 0 0 1 1.92 8.576 16.768 16.768 0 0 1-6.016 13.824c-4.384 3.712-11.488 5.6-21.12 5.6-9.6 0-16.704-1.92-21.12-5.6a16.8 16.8 0 0 1-5.984-13.824c0-3.328 0.64-6.144 1.92-8.544a21.408 21.408 0 0 1 5.6-6.816c2.624-2.112 5.824-4.032 9.568-5.76 3.264-1.44 6.656-2.72 10.08-3.776 3.52 1.056 6.944 2.336 10.112 3.776 3.616 1.696 6.72 3.584 9.472 5.76a21.28 21.28 0 0 1 5.568 6.784z m52.16-65.888c3.2-6.88 4.8-14.912 4.8-23.84 0-11.264-2.56-21.12-7.488-29.216-4.8-7.904-11.328-14.496-19.424-19.52a84.48 84.48 0 0 0-26.368-10.432 136.48 136.48 0 0 0-57.92 0 84.416 84.416 0 0 0-26.176 10.432 58.656 58.656 0 0 0-19.456 19.552 55.392 55.392 0 0 0-7.456 29.184c0 8.864 1.6 16.832 4.768 23.712a64 64 0 0 0 12.032 17.6 76.128 76.128 0 0 0 18.304 13.856 76 76 0 0 0-13.12 11.68c-8 8.928-12.096 20.16-12.096 33.408 0 8.512 2.016 16.448 5.984 23.552 3.84 6.944 9.184 12.864 15.808 17.664 6.336 4.64 13.984 8.32 22.656 10.88 8.576 2.528 17.92 3.808 27.808 3.808 9.856 0 19.2-1.28 27.744-3.808 8.64-2.56 16.288-6.208 22.72-10.88 6.656-4.864 11.936-10.784 15.776-17.664 3.968-7.104 5.984-15.04 5.984-23.552 0-13.44-4.096-24.768-12.128-33.6a76.32 76.32 0 0 0-13.088-11.456l2.048-1.12c6.016-3.392 11.456-7.552 16.224-12.48 4.96-5.12 9.024-11.072 12.064-17.76z m-294.112-10.88a22.336 22.336 0 0 1-2.368-10.432c0-8 2.496-13.792 7.84-18.208 5.696-4.672 14.592-7.04 26.464-7.04 12.032 0 20.96 2.368 26.528 7.04 5.248 4.32 7.808 10.304 7.808 18.208a22.336 22.336 0 0 1-2.432 10.464 30.784 30.784 0 0 1-7.136 8.96 52 52 0 0 1-11.616 7.584 88.64 88.64 0 0 1-13.152 5.088 94.912 94.912 0 0 1-13.376-5.12 48.32 48.32 0 0 1-11.456-7.488 32 32 0 0 1-7.104-9.056z m57.12 76.8a17.856 17.856 0 0 1 1.92 8.544 16.768 16.768 0 0 1-6.016 13.824c-4.384 3.712-11.488 5.6-21.088 5.6-9.632 0-16.736-1.888-21.12-5.568a16.768 16.768 0 0 1-5.984-13.856c0-3.264 0.64-6.144 1.92-8.576a21.44 21.44 0 0 1 5.6-6.816c2.688-2.144 5.824-4 9.536-5.696 3.264-1.472 6.656-2.752 10.08-3.84 3.52 1.088 6.944 2.368 10.144 3.84 3.584 1.664 6.72 3.52 9.408 5.728a21.536 21.536 0 0 1 5.6 6.784z m40.096-48.16c4.96-5.088 9.024-11.072 12.064-17.76 3.2-6.88 4.8-14.912 4.8-23.84 0-11.232-2.56-21.088-7.52-29.216a58.496 58.496 0 0 0-19.36-19.52c-7.808-4.8-16.64-8.32-26.4-10.432a136 136 0 0 0-57.92 0 84.064 84.064 0 0 0-26.176 10.432 58.4 58.4 0 0 0-19.456 19.584 55.136 55.136 0 0 0-7.456 29.152c0 8.96 1.6 16.96 4.8 23.776a64 64 0 0 0 12.032 17.536 75.392 75.392 0 0 0 18.24 13.856 77.088 77.088 0 0 0-13.056 11.648c-8.032 8.96-12.128 20.224-12.128 33.44 0 8.544 2.016 16.448 6.016 23.584 3.84 6.848 9.12 12.8 15.744 17.6 6.4 4.672 14.048 8.32 22.688 10.912 8.576 2.528 17.92 3.808 27.84 3.808 9.856 0 19.2-1.28 27.744-3.808 8.672-2.56 16.32-6.24 22.72-10.88 6.592-4.832 11.904-10.784 15.776-17.632 3.968-7.136 5.952-15.04 5.952-23.584 0-13.44-4.064-24.768-12.16-33.632a75.968 75.968 0 0 0-13.056-11.424l2.048-1.12c5.952-3.328 11.424-7.52 16.224-12.48z m-259.424 0.736a29.888 29.888 0 0 1-10.752-6.464 31.84 31.84 0 0 1-7.104-10.496c-1.76-4.16-2.656-9.056-2.656-14.56 0-11.52 2.752-20 8.192-25.216 5.632-5.44 13.472-8.032 24.032-8.032 5.056 0 9.76 0.768 13.92 2.304a31.104 31.104 0 0 1 10.688 6.368 29.44 29.44 0 0 1 7.04 10.24c1.76 4.16 2.656 9.152 2.656 14.912 0 6.304-0.832 11.616-2.56 15.808a27.136 27.136 0 0 1-6.528 9.824 25.6 25.6 0 0 1-9.792 5.632 43.424 43.424 0 0 1-27.136-0.32z m70.656 24.416c6.88-5.952 12.416-13.536 16.48-22.624 4.064-9.056 6.112-19.808 6.112-31.904s-2.336-22.976-6.976-32.352c-4.608-9.28-10.816-17.184-18.464-23.424a80.448 80.448 0 0 0-25.824-13.984 94.016 94.016 0 0 0-29.376-4.704c-12.16 0-23.36 1.664-33.28 4.96a65.344 65.344 0 0 0-26.304 16.256 72.704 72.704 0 0 0-16.416 27.84c-3.68 10.784-5.536 23.904-5.536 38.944 0 17.024 2.4 33.28 7.136 48.352 4.768 15.296 12.224 29.152 22.144 41.184 10.016 12.128 22.848 22.08 38.208 29.664 15.264 7.52 36.032 12.992 56 14.336l16.672-0.224-10.24-39.168-5.664-0.48a96.64 96.64 0 0 1-30.912-7.52 77.888 77.888 0 0 1-22.72-15.168c-6.144-5.984-11.2-12.992-15.04-20.8 9.504 5.28 21.152 7.936 34.688 7.936 8.768 0 17.536-1.376 26.016-4.096 8.576-2.784 16.416-7.168 23.296-13.024z m-232.896 30.016L192 452.928 276.16 480v-221.312H230.496V423.36l-23.36-7.232zM512 832C264.576 832 64 631.392 64 384c0-247.424 200.576-448 448-448s448 200.576 448 448C960 631.36 759.424 832 512 832z"  horiz-adv-x="1024" />

    
    <glyph glyph-name="icon-test4" unicode="&#58957;" d="M512 448c-35.296 0-64 28.704-64 64s28.704 64 64 64 64-28.704 64-64-28.704-64-64-64m0 192c-70.592 0-128-57.408-128-128s57.408-128 128-128 128 57.408 128 128-57.408 128-128 128M768 98.368v69.92a151.904 151.904 0 0 1-151.712 151.68h-208.576A151.904 151.904 0 0 1 256 168.32v-69.92C177.632 168.64 128 270.4 128 384 128 596.096 299.936 768 512 768s384-171.904 384-384c0-113.6-49.632-215.36-128-285.632m-448-46.56v116.48a87.776 87.776 0 0 0 87.712 87.68h208.576A87.776 87.776 0 0 0 704 168.32v-116.48a381.568 381.568 0 0 0-384 0m192 780.16C264.96 832 64 631.04 64 384c0-246.976 200.96-448 448-448s448 201.024 448 448c0 247.04-200.96 448-448 448"  horiz-adv-x="1024" />

    
    <glyph glyph-name="icon-test5" unicode="&#58959;" d="M128 640h64V704H128zM320 640h576V704H320zM128 352h64v64H128zM320 352h576v64H320zM128 64h64v64H128zM320 64h576v64H320z"  horiz-adv-x="1024" />

    
    </font>
</defs>
</svg>
